<svg width="25" height="25" viewBox="0 0 25 25" fill="none" xmlns="http://www.w3.org/2000/svg">
<path d="M18.7399 1.66239C17.689 1.55119 16.6329 1.49715 15.5762 1.50065C12.0728 1.50065 9.89587 3.73142 9.89587 7.3234V9.76176H6.95296C6.66546 9.76157 6.43226 9.99452 6.43213 10.282V14.2936C6.43194 14.5811 6.66489 14.8143 6.95239 14.8145H9.89587V22.8548C9.89568 23.1423 10.1286 23.3755 10.4161 23.3756H14.56C14.8475 23.3758 15.0806 23.1429 15.0808 22.8554V14.8145H18.0146C18.2763 14.8144 18.4974 14.6203 18.5314 14.3608L19.0492 10.3497C19.0864 10.0646 18.8854 9.80334 18.6003 9.76614C18.5777 9.76322 18.5551 9.76176 18.5324 9.76176H15.0808V7.72115C15.0808 6.71102 15.2843 6.28886 16.5477 6.28886L18.6717 6.28784C18.9592 6.28797 19.1924 6.05508 19.1925 5.76758V2.17916C19.1926 1.91772 18.999 1.69672 18.7399 1.66239ZM18.1509 5.24617L16.5477 5.24719C14.2996 5.24719 14.0391 6.65914 14.0391 7.72115V10.2827C14.039 10.5701 14.2719 10.8033 14.5594 10.8034H17.9403L17.5568 13.7728H14.56C14.2725 13.7727 14.0393 14.0055 14.0391 14.293V22.334H10.9375V14.2936C10.9377 14.0061 10.7048 13.773 10.4173 13.7728H7.4738V10.8034H10.4167C10.7042 10.8036 10.9374 10.5707 10.9375 10.2832V7.3234C10.9375 4.32963 12.6719 2.54231 15.5762 2.54231C16.627 2.54231 17.5761 2.59928 18.1509 2.64913V5.24617Z" fill="#8F8F8F"/>
</svg>
