<svg width="16" height="16" viewBox="0 0 16 16" fill="none" xmlns="http://www.w3.org/2000/svg">
<path d="M10.6668 13.3335V2.66683C10.6668 2.31321 10.5264 1.97407 10.2763 1.72402C10.0263 1.47397 9.68712 1.3335 9.3335 1.3335H6.66683C6.31321 1.3335 5.97407 1.47397 5.72402 1.72402C5.47397 1.97407 5.3335 2.31321 5.3335 2.66683V13.3335" stroke="white" stroke-width="1.33333" stroke-linecap="round" stroke-linejoin="round"/>
<path d="M13.3335 4H2.66683C1.93045 4 1.3335 4.59695 1.3335 5.33333V12C1.3335 12.7364 1.93045 13.3333 2.66683 13.3333H13.3335C14.0699 13.3333 14.6668 12.7364 14.6668 12V5.33333C14.6668 4.59695 14.0699 4 13.3335 4Z" stroke="white" stroke-width="1.33333" stroke-linecap="round" stroke-linejoin="round"/>
</svg>
