<svg width="16" height="16" viewBox="0 0 16 16" fill="none" xmlns="http://www.w3.org/2000/svg">
<g clip-path="url(#clip0_1_3474)">
<path d="M1.3335 13.3333C1.3335 13.6869 1.47397 14.026 1.72402 14.2761C1.97407 14.5261 2.31321 14.6666 2.66683 14.6666H13.3335C13.6871 14.6666 14.0263 14.5261 14.2763 14.2761C14.5264 14.026 14.6668 13.6869 14.6668 13.3333V5.33325L10.0002 8.66659V5.33325L5.3335 8.66659V2.66659C5.3335 2.31296 5.19302 1.97382 4.94297 1.72378C4.69292 1.47373 4.35378 1.33325 4.00016 1.33325H2.66683C2.31321 1.33325 1.97407 1.47373 1.72402 1.72378C1.47397 1.97382 1.3335 2.31296 1.3335 2.66659V13.3333Z" stroke="#8F8F8F" stroke-linecap="round" stroke-linejoin="round"/>
<path d="M11.3335 12H12.0002" stroke="#8F8F8F" stroke-linecap="round" stroke-linejoin="round"/>
<path d="M8 12H8.66667" stroke="#8F8F8F" stroke-linecap="round" stroke-linejoin="round"/>
<path d="M4.6665 12H5.33317" stroke="#8F8F8F" stroke-linecap="round" stroke-linejoin="round"/>
</g>
<defs>
<clipPath id="clip0_1_3474">
<rect width="16" height="16" fill="white"/>
</clipPath>
</defs>
</svg>
