<svg width="16" height="16" viewBox="0 0 16 16" fill="none" xmlns="http://www.w3.org/2000/svg">
<path d="M8 4.6665V13.9998" stroke="#567CDF" stroke-linecap="round" stroke-linejoin="round"/>
<path d="M2.00016 12C1.82335 12 1.65378 11.9298 1.52876 11.8047C1.40373 11.6797 1.3335 11.5101 1.3335 11.3333V2.66667C1.3335 2.48986 1.40373 2.32029 1.52876 2.19526C1.65378 2.07024 1.82335 2 2.00016 2H5.3335C6.04074 2 6.71902 2.28095 7.21911 2.78105C7.71921 3.28115 8.00016 3.95942 8.00016 4.66667C8.00016 3.95942 8.28111 3.28115 8.78121 2.78105C9.28131 2.28095 9.95959 2 10.6668 2H14.0002C14.177 2 14.3465 2.07024 14.4716 2.19526C14.5966 2.32029 14.6668 2.48986 14.6668 2.66667V11.3333C14.6668 11.5101 14.5966 11.6797 14.4716 11.8047C14.3465 11.9298 14.177 12 14.0002 12H10.0002C9.46973 12 8.96102 12.2107 8.58595 12.5858C8.21088 12.9609 8.00016 13.4696 8.00016 14C8.00016 13.4696 7.78945 12.9609 7.41438 12.5858C7.0393 12.2107 6.5306 12 6.00016 12H2.00016Z" stroke="#567CDF" stroke-linecap="round" stroke-linejoin="round"/>
</svg>
