<svg width="16" height="16" viewBox="0 0 16 16" fill="none" xmlns="http://www.w3.org/2000/svg">
<g clip-path="url(#clip0_1_3459)">
<path d="M10.6668 13.3333V2.66659C10.6668 2.31296 10.5264 1.97382 10.2763 1.72378C10.0263 1.47373 9.68712 1.33325 9.3335 1.33325H6.66683C6.31321 1.33325 5.97407 1.47373 5.72402 1.72378C5.47397 1.97382 5.3335 2.31296 5.3335 2.66659V13.3333" stroke="white" stroke-linecap="round" stroke-linejoin="round"/>
<path d="M13.3335 4H2.66683C1.93045 4 1.3335 4.59695 1.3335 5.33333V12C1.3335 12.7364 1.93045 13.3333 2.66683 13.3333H13.3335C14.0699 13.3333 14.6668 12.7364 14.6668 12V5.33333C14.6668 4.59695 14.0699 4 13.3335 4Z" stroke="white" stroke-linecap="round" stroke-linejoin="round"/>
</g>
<defs>
<clipPath id="clip0_1_3459">
<rect width="16" height="16" fill="white"/>
</clipPath>
</defs>
</svg>
