<svg width="25" height="25" viewBox="0 0 25 25" fill="none" xmlns="http://www.w3.org/2000/svg">
<g clip-path="url(#clip0_2_392)">
<path d="M17.9688 24.2188H7.03125C5.37365 24.2187 3.78394 23.5603 2.61183 22.3882C1.43973 21.2161 0.78125 19.6264 0.78125 17.9688V7.03125C0.78125 5.37365 1.43973 3.78394 2.61183 2.61183C3.78394 1.43973 5.37365 0.78125 7.03125 0.78125H17.9688C19.6264 0.78125 21.2161 1.43973 22.3882 2.61183C23.5603 3.78394 24.2187 5.37365 24.2188 7.03125V17.9688C24.2187 19.6264 23.5603 21.2161 22.3882 22.3882C21.2161 23.5603 19.6264 24.2187 17.9688 24.2188Z" stroke="#8F8F8F" stroke-miterlimit="10"/>
<path d="M12.5 17.9688C15.5203 17.9688 17.9688 15.5203 17.9688 12.5C17.9688 9.47969 15.5203 7.03125 12.5 7.03125C9.47969 7.03125 7.03125 9.47969 7.03125 12.5C7.03125 15.5203 9.47969 17.9688 12.5 17.9688Z" stroke="#8F8F8F" stroke-miterlimit="10"/>
<path d="M19.5312 6.25C19.9627 6.25 20.3125 5.90022 20.3125 5.46875C20.3125 5.03728 19.9627 4.6875 19.5312 4.6875C19.0998 4.6875 18.75 5.03728 18.75 5.46875C18.75 5.90022 19.0998 6.25 19.5312 6.25Z" stroke="#8F8F8F" stroke-miterlimit="10"/>
</g>
<defs>
<clipPath id="clip0_2_392">
<rect width="25" height="25" fill="white"/>
</clipPath>
</defs>
</svg>
