<svg width="25" height="25" viewBox="0 0 25 25" fill="none" xmlns="http://www.w3.org/2000/svg">
<path d="M22.8599 2.88001C22.4022 2.50051 21.7733 2.40285 21.2221 2.6257L2.55857 10.1605C1.73758 10.4984 1.346 11.4379 1.68392 12.2588C1.8587 12.6834 2.2066 13.0129 2.63995 13.1644L6.66623 14.5642L8.84824 21.7785C8.85263 21.7932 8.86611 21.8022 8.87176 21.8163C8.89433 21.8738 8.92733 21.9268 8.96898 21.9724C8.98449 21.9908 9.0014 22.008 9.01946 22.0239C9.07382 22.0691 9.13695 22.1025 9.20485 22.1219C9.21521 22.125 9.22214 22.1342 9.2327 22.1366L9.2388 22.1363L9.24185 22.1376C9.27663 22.1454 9.31211 22.1491 9.34765 22.1488C9.39412 22.1472 9.44022 22.1391 9.48447 22.125C9.49305 22.1226 9.5017 22.1232 9.51009 22.1205C9.58568 22.0938 9.65397 22.05 9.7096 21.9924C9.71608 21.9859 9.72594 21.9848 9.73217 21.9779L12.8714 18.5142L17.4511 22.0603C17.7294 22.2779 18.0724 22.3961 18.4256 22.396C19.1896 22.3959 19.849 21.8607 20.0064 21.1132L23.4051 4.42827C23.5229 3.8511 23.3133 3.25601 22.8599 2.88001ZM9.98756 15.9324L9.25088 19.5123L7.71458 14.4313L15.3342 10.4636L10.129 15.6689C10.057 15.7409 10.0078 15.8326 9.98756 15.9324ZM18.9862 20.9037C18.9463 21.0954 18.8094 21.2527 18.6251 21.3187C18.4449 21.388 18.2414 21.3571 18.09 21.2374L13.1278 17.3952C12.913 17.2289 12.6064 17.2559 12.4239 17.4572L10.2409 19.8658L10.9763 16.2955L18.4643 8.80652C18.6678 8.60339 18.6682 8.2738 18.465 8.07035C18.3044 7.90931 18.0577 7.87129 17.856 7.97644L7.06086 13.598L2.98073 12.1797C2.75833 12.1066 2.60708 11.9001 2.60434 11.666C2.5936 11.4303 2.73315 11.2135 2.95224 11.1259L21.6127 3.59209C21.8077 3.50937 22.0326 3.54402 22.1936 3.6816C22.3538 3.81092 22.4274 4.01952 22.3838 4.22075L18.9862 20.9037Z" fill="#8F8F8F"/>
</svg>
