<?xml version="1.0" encoding="UTF-8"?>
<svg id="_Слой_1" data-name="Слой 1" xmlns="http://www.w3.org/2000/svg" viewBox="0 0 557.09 353.42">
  <defs>
    <style>
      .cls-1 {
        fill: #395172;
      }

      .cls-2 {
        fill: #0c2541;
      }
    </style>
  </defs>
  <path class="cls-1" d="M369.82,351.17c-.52-1.57-4.15-4.29-6.82-5.06-2.34-.72-2.77-.72-4.58,0-1.24.48-3.48.76-5.92.76h-3.91v-1.91c0-1.43-.24-2-1-2.43-1-.52-1.05-.72-.76-7.25.24-5.73.43-6.92,1.29-8.06.52-.72,1.43-2,2-2.77l1.05-1.43-1.53-1.57c-.86-.86-1.53-2-1.53-2.58,0-.86-.38-1-3.72-1.19-4.63-.33-6.39-1.05-10.4-4.39-2.34-1.91-4.15-2.96-6.49-3.72-3.1-1-3.29-1-5.77-.24-1.43.43-3.72.81-5.15.81-3.15,0-4.25-.67-14.03-8.06-8.68-6.63-10.54-7.78-16.75-10.31-5.01-2-5.34-2.24-8.87-6.06-2.39-2.58-3.67-4.34-3.72-5.11,0-1-.14-1.1-1.53-.81-.86.14-3.01.38-4.77.57-3.15.33-3.24.29-5.01-1.29-1-.91-4.15-3.34-6.97-5.44-4.01-2.96-5.58-4.49-7.06-6.78-1.43-2.15-3.2-3.91-6.54-6.49-10.97-8.4-16.08-12.26-23.76-18.04l-8.11-6.11-1.1-6.11c-1.62-9.26-1.67-9.3-4.58-11.98-2.24-2.05-2.62-2.67-2.62-4.1s-.14-1.72-1.1-1.72-1.29-.57-2.86-5.82c-1.43-4.77-1.77-6.49-1.67-9.21.19-4.44-1.24-7.3-6.2-12.45l-3.67-3.86-4.06-.81-4.06-.81-1.43,1.72c-1,1.15-1.81,1.67-2.72,1.67-1.15,0-1.34.19-1.34,1.43,0,1.38-.1,1.43-2,1.43-1.15,0-3.1-.33-4.39-.72-1.72-.52-4.72-.72-11.12-.72-10.02,0-9.64.1-16.37-4.39-4.29-2.86-4.53-3.1-4.68-4.82-.1-1.29.29-2.77,1.24-4.87,1.29-2.62,1.43-3.39,1.19-5.92l-.29-2.91h2.48c1.34,0,2.43-.19,2.43-.38,0-1.05-2.96-4.34-5.39-6.01-2.53-1.77-2.72-2-2.72-3.82,0-2.48,1.38-7.54,2.24-8.25.57-.43.14-.91-2.34-2.58-1.62-1.15-3.77-2.34-4.77-2.67-1.48-.48-14.93-2.53-16.84-2.53-.33,0-.72-.91-.91-2-.72-4.39-3.29-6.58-7.87-6.58h-2.34l-4.68-5.34c-2.62-2.91-4.96-5.39-5.25-5.49-.24-.1-.91.67-1.43,1.62-1.15,2.15-1.81,2.34-5.96,1.57l-3.2-.62-2.19,1.57c-1.19.86-2.19,1.77-2.19,1.91,0,.19.95,1.15,2.15,2.1,1.77,1.48,2.15,2.05,2.15,3.44,0,1.48-.1,1.62-1.43,1.62-.81,0-2.53-.57-3.86-1.24-2.05-1.05-2.62-1.15-3.91-.72-2.29.81-3.2,1.91-3.2,3.91,0,1.53-2.15,6.54-3.24,7.68-.19.19-2.91.86-6.06,1.48-8.83,1.81-18.8,5.87-22.23,9.02-.95.91-1.34,1.86-1.57,3.91-.62,4.77.62,11.79,2.62,15.36,1.86,3.29,1.81,5.06-.1,6.44-1.43,1-1.67,1.05-5.39.52-6.54-.91-27.48-4.68-27.77-5.01-.29-.29,2.05-24.29,9.16-95.28,3.72-37.22,5.44-54.58,5.44-55.73,0-.57.29-1.15.57-1.24.62-.19,12.45-2.77,42.85-9.3C92.04,1.87,94.47,1.4,96.09,1.4c1.77,0,2.15.24,19.42,12.69,4.72,3.44,16.56,11.88,26.24,18.8,9.73,6.92,19.8,14.08,22.43,15.98l4.77,3.39.14,2.34c.19,2.77.05,2.58,9.83,14.55,11.93,14.6,20.56,24.48,20.71,23.76.1-.48,4.87-1.38,18.7-3.48l18.56-2.77,16.6,1.72c9.11,1,17.42,1.77,18.42,1.77,1.29,0,3.72-1,8.78-3.58,4.29-2.19,7.49-3.58,8.45-3.58,1.34,0,1.91.57,5.77,5.58,3.82,4.96,4.77,5.87,8.64,8.35,3.91,2.53,4.53,3.1,5.92,5.77,1.38,2.62,2.62,4.82,6.49,11.64l1.15,2,2.29-.67c1.24-.38,3.05-.72,4.06-.72h1.77v3.01c-.1,8.59-.86,18.37-1.62,19.51-.67,1-.72,1.96-.29,7.59.29,3.53.62,6.73.76,7.16.33,1.1,1.62,1.38,6.68,1.38,6.58,0,8.73.38,8.97,1.62,2.1,11.21,4.06,19.32,7.01,29.49.86,2.91,1.05,3.24,2.58,3.72,1.38.48,1.67.76,1.67,1.91,0,.72-.33,2.1-.76,3.1-.38.95-.62,2-.48,2.29.14.43.24.38.24,0,.1-1.1,3.48-.62,8.87,1.24l5.25,1.81.81,2.24c1.29,3.67,1.38,3.72,6.3,3.39,2.39-.14,5.2-.57,6.25-.95,1.05-.38,2.82-.91,3.91-1.19,2-.48,4.44-2.77,4.44-4.1,0-.38.76-1.53,1.72-2.58,1.48-1.62,2.05-1.91,3.58-1.91,1.77,0,1.86.1,1.86,1.43,0,.81-.43,2.34-.95,3.39-.57,1.05-.86,2.1-.72,2.34.14.24,1.57,1.24,3.24,2.19,4.87,2.91,6.06,3.96,6.06,5.25,0,.95.24,1.15,1.34,1.15.72,0,2.67.14,4.39.29,2.86.29,3.24.19,4.49-.86l1.34-1.15-1-3.24c-1.62-5.2-1.24-7.44,1.24-7.44.86,0,1.1-.29,1.1-1.24,0-.67.43-2.67,1-4.49.91-3.1,1.05-3.29,4.29-5.49,4.53-3.1,5.2-4.06,5.2-7.35v-2.67l3.05-1.57c1.67-.86,4.1-1.81,5.34-2.15,2.24-.57,2.34-.67,2.91-2.86.29-1.29.81-2.62,1.15-3.01,1.48-1.77,5.44-4.1,9.3-5.49,7.4-2.58,10.45-4.96,14.98-11.64,3.2-4.68,3.82-5.15,6.3-4.87,1.15.14,2.58.33,3.2.43,1,.14,1.48-.33,3.15-3.2,1.77-3.01,2.39-3.58,5.53-5.34,2.58-1.48,4.06-2,5.58-2.05,2.86,0,4.39,1.1,4.39,3.2,0,1.57-.1,1.67-4.15,3.58-5.2,2.39-6.35,3.39-6.35,5.49,0,1.43-.24,1.72-2,2.48-2.24.95-3.72,2.43-6.01,5.82-2,2.96-4.58,5.44-7.68,7.25-1.43.86-3.01,2.15-3.58,2.86l-1,1.38,1.05.81c.57.48,2.29,1.1,3.82,1.43,3.29.62,4.91,1.62,4.91,3.01,0,.91.1.95.86.29,2.62-2.34,6.92-3.05,8.4-1.38.52.57.95,2.05,1.1,3.86.33,3.29.29,3.29,5.15,4.53,1.86.43,4.68,1.48,6.3,2.29,2.24,1.05,3.15,1.29,3.63.91.33-.29,2.19-.57,4.15-.67l3.58-.14.14-3.67.14-3.72h1.86c2.1,0,2.24-.14,3.01-3.24.57-2.19.62-2.24,2.58-2.39,2.43-.19,3.34.62,6.35,5.68,1.1,1.86,2.29,3.48,2.62,3.58.33.14,1.29-.1,2.1-.48.76-.43,2.1-.76,2.86-.76,1.24,0,1.48.24,1.91,1.81.29.95.52,2.77.52,4.01v2.24l1.53-.43c.81-.24,1.96-.91,2.53-1.43,1.53-1.43,3.77-1.24,6.39.67,1.19.86,2.91,1.96,3.77,2.39,2.15,1.1,8.06,2.19,11.83,2.19h3.05v1.62c0,1.48-.24,1.81-2.77,3.29-3.05,1.91-4.58,3.39-5.11,5.01-.19.62-.67,1.05-1.24,1.05s-1.29.62-1.77,1.43c-.67,1.19-1.1,1.43-2.58,1.43-.95,0-2.82-.57-4.15-1.24-2.91-1.53-3.86-1.1-3.86,1.77,0,1.81-.05,1.86-1.67,1.86-1.19,0-1.67.19-1.67.72,0,.43-.38.86-.81,1-3.15,1-3.48,1.29-3.77,3.01-.14.95-.91,2.39-1.67,3.15-.72.81-1.53,2-1.81,2.77-.33.91-.86,1.29-1.62,1.29-.62,0-1.96.52-2.91,1.19-2.05,1.38-3.91,1.53-5.15.38-.67-.62-1-.67-1.43-.24-.95.95-4.53.67-7.59-.62l-2.91-1.15-8.68,2.67c-5.39,1.72-9.54,2.72-10.97,2.72-2.19.05-2.43-.1-3.44-1.62-2.29-3.53-3.05-4.25-5.11-4.63-1.91-.38-2-.48-2.15-2.24-.14-1.72.1-2.1,2.86-5.01,1.72-1.72,3.77-4.01,4.68-5.06.86-1.05,2.1-2.15,2.82-2.48l1.24-.57-1.29-.05c-.76,0-1.57-.43-2.05-1.05-2-2.86-5.63-9.35-5.92-10.64-.33-1.34-.48-1.43-2.19-1.34-2.43.19-3.05.86-3.53,3.96-.52,3.15-.81,3.44-8.68,7.44-4.15,2.1-6.63,3.67-7.78,4.96-2.19,2.48-4.63,2.67-7.06.57-.86-.76-2.53-2.05-3.67-2.86l-2.05-1.53-1.43,1.05c-1.62,1.15-2.77,3.48-2.77,5.58,0,.76-.14,1.72-.29,2.15-.38,1-3.1,1-4.91.05-1.29-.67-1.38-.62-1.15.24.19.76.67.95,2.1.95,1.15,0,1.86.24,1.86.62,0,.29.67,1.86,1.43,3.39,1,1.96,1.43,3.48,1.43,5.11v2.34h-1.91c-1.86,0-1.91.05-1.91,1.67,0,1.81.48,1.62-6.44,2.58-1.81.29-4.82,1-6.63,1.67l-3.29,1.15,1.48.76c.81.43,1.91.76,2.48.76.81,0,.95.29.95,1.81,0,1-.14,2-.33,2.19-.24.24-.38,1.77-.38,3.48v3.15l-1.91.52c-2.48.72-3.1,2-3.1,6.54,0,3.2-.14,3.72-1.19,4.72-1.15,1.1-1.24,1.1-8.92.81-4.29-.19-10.35-.48-13.5-.62-5.25-.29-5.92-.24-7.73.72-1.1.52-2.58,1-3.24,1-.86,0-1.19.24-1.19.95,0,.48-.86,2.53-1.91,4.53-1.05,2-1.91,4.06-1.91,4.53,0,.52-.19.95-.48.95-.24,0-.48,1.19-.48,2.62v2.58l3.86,1.24c2.1.67,4.15,1.19,4.53,1.19,1.43,0,2.58,1.81,2.58,4.2v2.29l3.34.57c1.86.33,5.39.57,7.82.57,3.63,0,4.53.14,4.77.76.62,1.62.24,3.67-.95,5.2-1.15,1.53-1.24,1.91-1.05,6.11.14,4.1.29,4.77,2.05,8.16,1.91,3.72,3.91,6.01,6.82,7.73,1.38.76,1.53,1.1,1.53,3.15s-1.38,8.25-2.15,9.45c-.14.24-.81.48-1.48.48-1.77,0-2.72,1.34-4.63,6.25-1.24,3.2-2.67,5.73-4.96,8.78l-3.24,4.29-.14,5.87-.19,5.92-2.19-.29c-6.78-.91-9.35-.86-11.69.14-3.05,1.34-5.87,1.34-6.3.05l-.03.07ZM334.94,265.48c.43-1.05.38-1.15-.43-1.15-.38,0-.72.43-.72.95,0,1.15.72,1.29,1.15.19h0ZM298.49,260.04c0-.24-.43-.48-.95-.48s-.95.24-.95.48c0,.29.43.48.95.48s.95-.19.95-.48Z"/>
  <g>
    <path class="cls-2" d="M367.52,351.27c-1.72-2.43-4.29-4.01-7.54-4.58-1.24-.19-2.34,0-4.01.72-2,.91-2.86,1-6.06.72-2-.19-4.01-.43-4.44-.57-.86-.33-.95-2.15-.14-2.96.43-.43.29-.81-.57-1.77-1.1-1.15-1.1-1.34-.76-7.25.29-5.82.38-6.2,1.72-8.02.81-1.05,1.77-2.53,2.19-3.24.72-1.34.67-1.38-1.1-3.15-1.53-1.53-2.39-1.91-5.63-2.62-4.1-.86-4.72-1.15-9.3-4.72-1.96-1.48-4.06-2.58-6.2-3.24l-3.2-.95-2.91.95c-5.63,1.91-6.58,1.53-19.28-8.11-8.02-6.11-11.16-7.97-17.84-10.4-2.58-.95-3.48-1.67-7.59-6.11-4.34-4.68-4.77-4.96-6.16-4.72-5.73,1-4.58,1.43-13.03-4.87-6.16-4.58-8.11-6.35-9.64-8.64-1.1-1.57-2.77-3.53-3.72-4.34-2.48-2-15.79-12.12-26.48-20.14-10.16-7.63-8.87-5.63-10.88-16.84-1.15-6.25-1.38-6.68-5.34-9.59-2.39-1.77-2.58-2.19-7.97-20.04-1.43-4.77-1.53-4.87-4.87-8.06-2.1-1.96-4.58-3.77-6.35-4.58-4.87-2.24-4.96-2.24-7.68,1-1.29,1.57-2.67,2.86-3.01,2.86s-1.53-.48-2.62-1.05c-1.86-1-2.86-1.1-12.74-1.38l-10.74-.29-6.44-4.29-6.44-4.25.1-2c.05-1.19.72-3.15,1.62-4.91,1.43-2.67,1.53-3.01.95-4.39-1.57-3.82-.95-5.06,2.48-5.11.95,0,1.77-.19,1.77-.38,0-.81-3.96-4.44-5.87-5.39-3.24-1.67-3.2-1.38-1.62-6.63l1.48-4.72-2.34-2.05c-1.24-1.15-2.53-2.19-2.82-2.39-.29-.14-4.58-.86-9.54-1.53-4.91-.67-9.16-1.34-9.4-1.53-.24-.14-.43-1.05-.43-2,0-1.67-1.43-4.72-2.58-5.44-.29-.19-1.81-.38-3.39-.38h-2.91l-4.72-5.34c-2.62-2.91-5.01-5.39-5.25-5.49-.29-.1-1,.86-1.57,2.05-.81,1.62-1.29,2.15-1.91,1.96-.43-.14-2.24-.62-3.96-1.1l-3.15-.86-1.72,1.1c-.95.57-1.77,1.24-1.77,1.43s.95,1.05,2.15,1.91c1.81,1.29,2.53,2.39,4.58,6.58,1.29,2.77,2.29,5.34,2.15,5.68-.14.38-.91.67-1.72.67-1.15,0-1.67-.33-2.29-1.53-1.43-2.62-3.91-5.11-6.49-6.35-2.29-1.15-2.62-1.15-4.34-.57-1.81.62-1.91.76-2.15,3.05-.14,1.38-.76,3.15-1.43,4.25-.67,1-1.48,2.43-1.77,3.15-.33.72-1.1,1.43-1.67,1.57-.62.1-3.29.67-5.96,1.19-5.44,1.05-11.83,3.2-16.13,5.34-5.06,2.58-5.3,2.82-5.63,6.2-.33,3.2.24,10.02,1.05,13.12.29,1.05,1.19,2.72,1.96,3.72.81,1,1.43,2.1,1.43,2.43s-1.19,1.62-2.67,2.86l-2.62,2.24-11.55-2c-6.35-1.1-13.5-2.34-15.94-2.77-2.39-.43-4.63-.91-4.96-1.1-.43-.29-.19-4.01.95-15.79.86-8.49,3.24-32.73,5.34-53.87,2.05-21.14,4.77-48.48,5.96-60.83,1.19-12.36,2.34-22.76,2.53-23.14.24-.43,2.24-1.1,5.11-1.72,2.58-.57,8.25-1.81,12.6-2.77,4.34-.95,11.12-2.39,15.03-3.2,3.96-.76,10.26-2.15,14.08-3.05,13.46-3.15,31.4-6.92,32.87-6.92,1.1,0,3.1,1.19,8.25,4.91,12.55,9.11,37.74,27.15,49.05,35.16,16.41,11.59,16.27,11.5,16.75,12.74.24.62.43,1.86.43,2.67,0,1.91.1,2.05,7.82,11.55,10.5,12.93,19.18,23.14,20.23,23.76.43.29,26.43-3.24,32.49-4.44,4.25-.81,10.54-.57,24.62.95,7.35.76,14.5,1.43,15.89,1.43,2.82,0,6.82-1.62,13.5-5.49,2.05-1.19,4.06-2.15,4.44-2.15s2.05,1.77,3.67,3.96c5.34,7.06,7.2,8.97,11.16,11.55,2.19,1.38,4.29,3.05,4.77,3.63.43.62,2.39,4.1,4.29,7.73,1.91,3.63,3.63,6.73,3.77,6.87.14.14,1.81-.19,3.72-.76,5.49-1.62,5.63-1.57,5.63,2-.05,8.02-.95,19.94-1.62,21.28-.62,1.15-.67,2.34-.29,7.49.24,3.39.48,6.39.48,6.68,0,.33,2.58.62,7.49.86,4.15.19,7.59.43,7.68.52.1.1.72,3.05,1.34,6.54.67,3.48,2.43,11.16,3.91,17.03l2.72,10.74,1.48.38c2.29.57,2.82,1.48,2.19,3.63-.29.95-.57,1.96-.57,2.24-.05.24,1.62.91,3.72,1.48,5.15,1.38,8.3,2.58,9.21,3.48.43.43,1.15,1.77,1.57,3.01l.81,2.24,4.87-.29c3.34-.19,5.44-.57,6.63-1.15,1-.52,2.24-.91,2.77-.91,1.72,0,2.77-.86,3.72-3.01.48-1.1,1.81-2.86,2.91-3.91,1.15-1.05,2.34-2.53,2.72-3.24.62-1.15.95-1.34,2.48-1.19l1.77.14-.14,2.62c-.1,1.48-.62,3.72-1.29,5.11l-1.1,2.43,1,.95c.57.48,3.29,2.24,6.06,3.91,4.58,2.77,5.3,3.05,8.25,3.24l3.2.19v-1.43c0-.76-.29-2.15-.67-3.01-.38-.91-.81-3.01-1-4.72-.33-3.34.19-4.44,2.39-4.87,1.05-.19,1.91-1.67,2.62-4.53.43-1.81.95-2.34,4.44-4.82l3.91-2.77.24-3.34.24-3.29,3.58-2.05c1.96-1.15,4.49-2.29,5.63-2.58,1.53-.43,2-.81,2-1.57,0-2.86,4.72-6.87,11.21-9.54,2.39-1,5.15-2.19,6.16-2.72,2.82-1.43,6.2-4.87,9.07-9.21,3.24-4.96,5.11-6.06,8.3-4.91,2,.76,2,.72,2.91-.52.48-.67,1.38-2.19,2-3.34.91-1.67,1.77-2.39,4.49-3.72,1.81-.95,3.91-2.1,4.63-2.58.67-.52,1.48-.91,1.77-.91,1,0,7.2,4.29,7.2,5.01,0,.91-1.77,2.05-7.44,4.77-4.44,2.1-4.96,2.67-4.96,5.3,0,1.29-1.05,2.19-3.29,2.82-1.38.43-2.39,1.38-5.11,5.01-2.77,3.58-4.15,4.96-7.3,7.01-2.96,1.96-3.86,2.82-3.86,3.67,0,.95.33,1.15,2.86,1.62,1.67.29,3.53,1,4.49,1.77l1.62,1.24,2.43-1.19c3.2-1.67,4.29-1.57,6.25.43,1.34,1.34,1.62,2.1,1.81,4.25l.19,2.62,2.72.76c3.86,1.1,8.16,2.67,8.45,3.15.38.67,1.72.48,2.62-.33.57-.52,1.1-.62,1.72-.29.48.24,1.81.38,3.01.33l2.15-.05-.14-3.58c-.24-4.29.33-5.15,2.82-4.29.86.29,1.67.38,1.81.24s.29-2.24.29-4.63.19-4.68.38-4.96c.24-.33.91-.62,1.57-.62.95,0,1.15.24,1.15,1.38,0,2.1.48,2.91,1.67,2.91,1.34,0,3.63,2.53,6.16,6.87,1,1.72,2.1,3.15,2.39,3.15s1.48-.43,2.62-.95c3.77-1.72,4.2-1.48,5.11,2.86.91,4.2,1.48,4.63,3.34,2.62,1.48-1.62,2.86-1.48,5.68.48,5.06,3.53,7.68,4.25,17.56,4.82,8.11.43,8.11.95-.05,6.39-4.25,2.82-4.63,3.24-4.77,4.77-.24,2.15-.91,2.91-2.24,2.58-.86-.19-1.24.1-2.1,1.48-1.15,1.96-1.43,1.96-5.39-.05-2.15-1.1-3.72-1.48-3.72-.91,0,.14.43,1.1.95,2.15.95,1.86,1.19,4.01.67,5.44-.48,1.19-2.15.91-3.82-.72q-1.53-1.48-3.82-.81c-2.19.62-2.34.76-2.48,2.43-.1,1.34-.48,1.96-1.53,2.58-.91.52-1.62,1.53-2,2.72-.57,1.81-.81,2-2.96,2.53-1.38.33-2.96,1.19-3.86,2.05-1.86,1.81-2.86,1.81-3.53,0-.57-1.72-.86-1.77-2.24-.43l-1.05.95-4.39-1.72c-4.29-1.62-4.49-1.67-6.39-1-4.44,1.62-16.6,5.11-17.94,5.15-1.77.05-2.62-.62-4.58-3.72-1.43-2.24-1.77-2.43-4.34-3.01-5.34-1.19-5.25-1.91.86-8.49,6.78-7.25,6.49-6.68,4.63-9.64-.86-1.34-2.53-4.01-3.72-5.96-1.72-2.82-2.43-3.58-3.53-3.82-.76-.14-1.48-.19-1.57-.1-.1.1-.33,1.29-.57,2.62-.24,1.48-.81,2.91-1.43,3.58-.57.62-4.06,2.67-7.73,4.58-5.39,2.82-7.01,3.91-8.59,5.77-1.05,1.29-2.34,2.34-2.77,2.34-.48,0-2.62-1.38-4.77-3.1-2.19-1.72-4.34-3.1-4.87-3.1-1.57,0-2.72,1.67-3.05,4.53-.24,1.81-.76,3.15-1.53,4.1-1.1,1.29-1.15,1.48-.48,2.24.43.43,1.29,2.34,2,4.15,1.96,5.15,1.91,4.91.48,5.49-1.1.43-1.29.72-1.05,1.86.38,1.91-.38,2.43-3.86,2.43-4.06,0-9.73.91-10.59,1.72-.57.57-.38.67,1.29.67,2.53,0,4.44.86,4.44,1.96s-1.38,1.86-3.2,1.86c-.76,0-1.81.29-2.29.67-.86.62-.86.76.81,2.58,3.44,3.82,3.63,5.68.43,5.15-1.29-.19-2-.1-2.39.38-.29.33-1.38.76-2.43.95l-1.91.29v3.86q0,3.82-2,6.2l-2.05,2.34h-3.1c-1.72,0-7.68-.33-13.26-.72-5.58-.33-10.54-.52-10.97-.38-4.2,1.62-8.21,6.25-8.21,9.49,0,1.1-.33,2.77-.76,3.77-.38,1-.62,2.05-.48,2.39.1.33,2.29,1.29,4.82,2.15,4.2,1.38,4.68,1.67,5.3,3.15.38.86.67,2,.67,2.53s.38,1.05.86,1.19c2.58.72,4.63.95,8.92.95l4.72.05,1.1,1.91c1.43,2.48,1.38,3.1-.38,5.3l-1.48,1.86.33,4.53c.29,4.06.52,4.96,2.34,8.35,1.67,3.24,2.43,4.15,4.91,5.96,1.72,1.19,3.15,2.62,3.29,3.29.38,1.38-1.96,9.92-3.01,11.16-.43.43-1.15.81-1.57.81-1.43,0-2.67,1.57-3.82,4.77-1.34,3.86-2.58,6.11-5.68,9.92l-2.43,3.01v4.91c0,8.54-.57,9.49-5.01,8.21-1.91-.57-2.86-.62-3.82-.29-.91.33-1.77.33-2.82-.05-1.24-.43-1.86-.33-4.25.72-3.96,1.77-4.72,1.67-6.68-1.05v.09ZM373.68,349.55c2.29-.91,3.53-1.1,6.63-.95,2.1.05,4.44.33,5.15.62.76.29,1.43.52,1.53.52s.24-2.62.33-5.87l.14-5.82,3.24-4.29c2.29-3.05,3.72-5.58,4.96-8.78,1.91-4.91,2.86-6.25,4.63-6.25,1.43,0,1.57-.19,2.72-4.29,1.19-4.44,1.15-4.91-.62-5.92-2.91-1.72-4.91-4.01-6.82-7.73-1.86-3.63-1.91-3.77-2.05-9.59-.19-5.73-.14-5.96,1.05-7.54,2.05-2.67,1.43-3.1-4.2-3.1-2.62,0-5.77-.24-6.92-.52-1.15-.24-2.19-.38-2.29-.24-.14.1.24.86.81,1.62,2.43,3.29-1.15,7.3-4.77,5.34-1.62-.86-2.24-.1-2.53,2.91-.33,3.58-1.19,4.63-4.2,5.01-1.29.19-2.58.62-2.86.95-.33.38-.62,2-.62,3.67-.14,5.15-2.05,7.49-6.06,7.49-1.38,0-1.38.05-1.38,2.86,0,5.73-1.53,7.16-7.73,7.16-4.1,0-4.53.67-2.1,3.34.95,1.05,1.72,2.29,1.72,2.82,0,.81-.91,2.39-3.29,5.63-.81,1.05-1.05,2.43-1.29,6.63-.33,5.11-.29,5.34.72,5.87.76.43,1,1,1,2.43v1.91h2.58c1.38,0,3.34-.33,4.25-.72,2.19-.91,4.77-.91,7.78,0,2.53.76,6.16,3.48,6.63,5.01.38,1.19.43,1.19,3.86-.19h0ZM346.1,315.29c.95-.95,1.81-1.15,5.73-1.34l4.63-.24.33-3.96c.19-2.19.57-4.29.91-4.68.29-.38,1.38-.67,2.53-.67,2.58,0,3.05-.38,3.86-3.05.52-1.72.57-2.82.24-4.39-.81-3.53-.29-4.01,5.01-4.87l2.39-.33.29-2.86c.52-4.87,1.05-5.34,5.49-4.77,2.34.29,2.58.24,2.58-.62,0-.48-.52-1.38-1.19-2-1.43-1.34-1.53-2.43-.24-3.58.52-.48.95-1.38.95-2,0-1.24-1.53-3.01-2.58-3.01-1.62,0-8.3-2.43-8.59-3.15-.14-.43-.14-1.57,0-2.62.29-1.72.19-1.86-1.05-2.34-.76-.29-2-.86-2.77-1.24-1.62-.76-1.77-.72-3.29,2.19-1.67,3.2-2.62,3.1-6.3-.67-2.34-2.39-3.44-3.15-4.39-3.15-.76,0-1.77-.14-2.34-.29-.81-.19-1.43.38-3.44,3.1-2.82,3.86-3.58,4.1-6.3,1.96-2.24-1.77-2.67-1.77-3.58-.05-1.34,2.62-4.06,2.29-4.06-.48,0-1.86-.86-1.77-3.96.29-4.1,2.77-5.58,2.19-8.4-3.44l-1.48-2.96-2.24,1.05c-2.1.95-2.96,1.05-10.31.95q-7.97-.1-9.3,1.15c-.72.67-2.24,1.72-3.44,2.39-5.58,3.2-5.73,3.29-5.73,5.68,0,1.19-.19,2.58-.48,3.05-.62,1.19-2.91,1.91-7.25,2.24-3.53.29-3.67.33-4.49,1.81l-.81,1.57,3.86,4.25c3.72,4.01,4.06,4.25,8.25,5.87,5.73,2.19,9.26,4.29,17.37,10.5,11.45,8.73,11.74,8.87,16.75,7.16,3.01-1.05,3.82-1,8.54.52,2,.62,4.01,1.81,6.39,3.77,3.15,2.53,4.58,3.34,7.44,3.96,2.15.48,3.34.29,4.44-.72l.03.02ZM267.8,278.5c2.62-.52,3.15-.81,4.2-2.34,1.05-1.57,1.43-1.77,3.91-2.05,7.68-.81,7.78-.86,7.78-4.49,0-2.15.62-2.77,6.3-6.01,1.77-1,3.29-2.1,3.44-2.43.1-.29-.81-1-2.15-1.62-2.48-1.19-2.77-1.81-1.62-3.82,1.15-2.05.91-2.24-3.01-2.48-3.86-.29-8.4-1.81-8.87-3.01-.14-.38-.05-1.38.19-2.24.38-1.29.29-1.81-.72-3.24-.67-.95-1.19-2.39-1.19-3.2,0-1.81,1.48-3.77,3.2-4.2.76-.14,2-.72,2.86-1.24q1.53-.95,1.24-4.15c-.24-3.01-.19-3.29,1-4.34,1.05-1,1.24-1.57,1.24-3.96,0-3.39.57-3.77,3.77-2.58,1.19.43,2.58.76,3.05.76s2.34-1.43,4.15-3.2c1.77-1.81,3.91-3.82,4.72-4.49.81-.72,1.48-1.48,1.48-1.77,0-.48-3.86-2-5.15-2-.38,0-1.53.76-2.53,1.67s-2.39,1.77-3.05,1.96c-1.86.48-6.01-1.81-8.73-4.82-3.29-3.58-3.96-5.2-4.06-10.12-.1-4.72-.76-5.53-1.81-2.19l-.67,2.29-3.91.14c-2.19.1-3.96.29-3.96.48-.05.19-.1,1.67-.14,3.34-.14,4.34-.52,4.58-7.73,4.15-7.4-.38-8.06-.91-5.68-4.53,1.15-1.72,1.24-2.86.19-2.86-.72,0-5.58,4.72-5.87,5.68-.1.52.19,1.81.67,2.91,1.15,2.53,1.15,3.44-.05,4.53-1.19,1.1-5.25.76-7.06-.57-1.1-.81-1.29-1.38-1.43-3.53l-.14-2.62-7.49-4.49c-4.1-2.48-7.73-4.58-8.06-4.68-.29-.1-1,.48-1.62,1.29-.57.76-1.67,1.67-2.48,2-1.34.57-1.53.52-2.53-.72-.95-1.1-1.15-1.81-1.15-4.49,0-3.2-.05-3.24-2.15-5.34-2.72-2.67-3.58-4.53-3.58-7.82,0-1.48-.19-2.67-.48-2.67-.52,0-10.07,3.24-10.35,3.53-.1.1.91,2.1,2.24,4.39,1.34,2.34,2.34,4.68,2.29,5.2-.1.62-1.15,1.48-3.01,2.48-1.57.81-2.91,1.72-3.01,2-.1.29.95,2.15,2.34,4.15,2.48,3.58,2.53,3.67,2.43,6.82-.14,4.25-.33,4.68-2.24,5.3-.91.29-1.67.67-1.67.81,0,.1,1.19,1.29,2.62,2.62,2.91,2.67,2.96,2.72,4.58,11.98l1.1,6.11,8.11,6.11c7.68,5.77,12.79,9.64,23.76,18.04,3.34,2.58,5.11,4.29,6.44,6.39,1.43,2.24,3.05,3.77,7.82,7.35,3.29,2.48,6.39,4.96,6.87,5.49,1,1.1,1.29,1.1,5.34.33h.02ZM327.3,263.14c1.81-1.19,3.48-2.15,3.72-2.15.19,0,.81.43,1.38,1,.86.86,1.15.91,2.1.43,1.38-.72,2.72-.29,4.77,1.48l1.62,1.43,2.43-3.1,2.48-3.15h2.53c3.48,0,4.82.62,7.73,3.44,1.38,1.38,2.58,2.39,2.67,2.24.1-.1.67-1,1.24-2,1.67-2.77,2.43-2.96,5.92-1.53,3.63,1.43,3.67,1.43,3.67.24,0-.48.86-2.53,1.86-4.49l1.91-3.58-.91-2.53c-1.05-2.96-.72-3.96,1.67-4.96,1.91-.76,2.29-1.34,1.91-2.58-.38-1.19-2.19-1.24-5.77-.19-2.48.72-2.67.72-4.72-.33-1.19-.57-2.58-1.57-3.15-2.15-.91-.95-.95-1.34-.57-3.01.48-1.81.48-1.86-.95-2.15-2.19-.43-3.2-1.57-3.2-3.63,0-1.77-.05-1.81-2.19-2.15-2.67-.38-4.49-2-4.49-3.91,0-.76.57-2.39,1.24-3.67l1.24-2.34-2.53-2.24c-2.43-2.15-2.48-2.24-2.19-4.15.57-3.53-.95-3.15-2.19.52-.91,2.67-2.48,4.58-3.72,4.58-.43,0-1.43-.76-2.19-1.67l-1.34-1.67-2.1,1.67c-1.15.91-2.48,1.67-2.96,1.67s-1.38-.76-1.96-1.67c-.62-.91-1.24-1.67-1.43-1.67-.76,0-1.72,2.82-1.96,6.06-.19,2.29-.67,4.2-1.48,5.82-.86,1.67-1.24,3.15-1.24,4.96,0,6.11-.67,6.73-6.35,6.01-3.39-.43-3.72-.38-4.63.52-.91.91-1.05.95-2.53.19-.81-.43-2.19-1.29-3.05-1.91-.81-.62-1.72-1.15-1.96-1.15s-.57,1.67-.76,3.67c-.38,4.01-.76,5.11-2.24,5.87-.72.38-1.29.33-2.43-.19-1.38-.72-1.53-.72-2.15.19-.38.52-1.48,1.1-2.53,1.24l-1.91.29,1.91,1.38c2.39,1.77,2.72,3.1,1.72,7.25-.43,1.81-.67,3.48-.48,3.72.14.24,3.1.43,6.58.43,5.63,0,6.63-.14,9.26-1.19,1.57-.67,3.2-1.05,3.58-.91.33.1,1.57,1.96,2.67,4.01,1.1,2.1,2.29,3.82,2.58,3.82.33,0,2.05-1,3.86-2.15v.04ZM296.52,256.03c.86-3.53.72-4.91-.76-5.87-5.11-3.15-5.2-5.92-.24-6.06,2-.05,2.24-.19,2.43-1.24.19-1.67.91-1.96,3.01-1.1,2.77,1.1,3.1.76,3.48-4.01.33-4.39.81-5.87,1.86-5.87.33,0,1.81.86,3.34,1.91,1.48,1.05,2.91,1.91,3.1,1.91.24,0,.72-.48,1.1-1.05.72-1.1.76-1.1,2.48-.29.95.48,2.86,1,4.29,1.15l2.53.29.29-3.53c.14-2.34.62-4.34,1.29-5.68.67-1.19,1.24-3.63,1.53-5.82.43-4.1.81-5.15,2.67-7.11,1.72-1.86,3.1-1.72,4.34.33,1.1,1.91,1.72,1.81,3.82-.43,1.57-1.67,3.1-1.57,4.44.19.57.81,1.19,1.43,1.38,1.43.24,0,.67-.86.95-1.96.91-2.86,2.82-4.72,4.91-4.72,1.57,0,1.72-.1,1.72-1.38,0-.76-.76-3.05-1.77-5.06-2-4.29-2.48-7.4-1.43-9.88l.76-1.77-1.67-.52c-1.43-.48-1.67-.86-2.53-3.72-2.96-10.16-4.91-18.27-7.01-29.49-.24-1.24-2.39-1.62-8.97-1.62-4.91,0-6.3-.29-6.68-1.24-.14-.38-.52-4.25-.81-8.54-.52-7.2-.48-7.97.29-9.11.67-1,.91-3.05,1.29-10.31.24-5.01.33-9.16.24-9.3-.14-.1-1.43.14-2.91.57-4.49,1.29-4.82,1.1-7.78-4.06-1.38-2.48-3.44-6.2-4.49-8.21-1.86-3.53-2.15-3.82-6.2-6.39-3.82-2.39-4.77-3.29-8.64-8.25-2.34-3.05-4.44-5.53-4.63-5.53-.14,0-3.44,1.57-7.25,3.53-8.35,4.25-6.49,4.1-29.01,1.72l-15.55-1.67-17.89,2.72c-9.83,1.48-17.99,2.72-18.08,2.82-.19.19,3.91,5.49,5.01,6.44.57.48,2.19.91,4.25,1.05,2.96.29,3.48.48,4.68,1.77,1.91,2.1,1.67,3.39-.86,5.2-4.29,3.05-7.87,6.87-10.21,10.74-1.29,2.1-4.2,6.01-6.49,8.64-2.24,2.62-4.2,5.25-4.39,5.87-.43,1.77.1,6.01,1.57,12.26,1.91,8.25,2.05,7.63-2.53,10.64-3.48,2.29-3.96,2.77-3.96,4.01,0,1.77.57,2.82,3.39,6.2,1.24,1.53,3.58,4.87,5.15,7.44,4.29,6.97,3.39,6.63,11.31,4.06,3.72-1.19,7.11-2.05,7.54-1.91.57.24.76.95.76,3.29,0,4.44.62,6.06,3.34,8.73l2.39,2.34v3.24c0,1.77.24,3.34.52,3.53.29.14,1.29-.48,2.29-1.43.95-.95,2-1.72,2.34-1.72s3.2,1.57,6.44,3.48c3.2,1.91,7.06,4.2,8.54,5.06,1.53.86,2.91,1.77,3.05,2.05.19.29.48,1.72.62,3.2l.29,2.67,1.77.14,1.77.14-.67-1.67c-1.62-3.86-.29-6.63,4.96-10.5,2.82-2.1,3.77-2.15,5.49-.33,1.1,1.15,1.29,1.67,1,2.82-.14.81-.62,1.72-1,2.05-1.34,1.1-.62,1.38,3.63,1.38h4.29v-3.53c0-2.29.19-3.67.62-4.01.33-.29,2.29-.57,4.39-.67,3.67-.14,3.77-.19,4.1-1.53.86-3.24,3.15-4.01,5.68-1.91l1.48,1.24-.33,3.91c-.29,3.44-.19,4.15.72,5.92,1.67,3.29,6.44,7.25,8.68,7.25.29,0,1.57-.91,2.86-1.96,2.72-2.29,3.58-2.29,8.16-.29,4.44,2,4.34,4.49-.29,7.92-1.48,1.1-2.86,2.34-3.1,2.82-.29.52-1.67,1.81-3.1,2.96-2.77,2.1-2.82,2.1-6.58,1.15-1.29-.29-1.34-.24-1.34,1.38,0,1.1-.43,2.19-1.19,3.1-1.1,1.29-1.15,1.67-.91,4.34.29,2.67.24,3.05-.81,4.2-.62.67-2.29,1.72-3.63,2.34-1.38.62-2.58,1.38-2.58,1.72-.14,1.34.19,2.1,1.34,3.34,1.19,1.24,1.24,1.77.38,3.82-.48,1.19,1.15,1.81,6.35,2.34,3.01.33,4.91.76,5.44,1.24.91.81,1.15,3.24.38,3.72-.86.52-.52,1.67.62,2.15,2.1.81,2.58.57,3.15-1.62h-.01ZM387.46,249.73c4.2.14,10.26.43,13.5.62,5.68.29,5.87.24,7.01-.81,1.05-1,1.19-1.53,1.19-4.72,0-4.53.62-5.82,3.1-6.54,1.05-.29,1.91-.72,1.91-.95-.05-.24-.19-1.34-.43-2.48-.29-1.57-.19-2.29.38-3.2,1-1.53.95-1.67-.33-1.67-1.1,0-3.53-1.43-7.35-4.34l-2.05-1.53-3.34,1.72c-4.01,2.15-6.16,2.29-8.4.57-2.62-2-2.77-2.67-1.38-5.92.67-1.57,1.19-3.82,1.19-4.91,0-3.34.43-4.15,2.96-5.58l2.39-1.38-1.62-1.15c-.86-.67-2.91-2-4.58-3.01-3.91-2.29-4.29-3.34-2.77-6.73.67-1.43,1-2.58.81-2.58-.67,0-3.86,3.77-3.86,4.49,0,1.34-2.43,3.63-4.44,4.1-1.1.29-2.86.81-3.91,1.19-1.05.33-3.53.76-5.49.91-1.96.14-4.34.43-5.25.57-2.24.38-3.58-.76-4.68-3.82l-.81-2.34-5.25-1.81c-2.91-1-5.39-1.81-5.58-1.81-.72-.1-.38,1.48,1.05,4.77,2.1,4.91,2.19,6.11.91,9.73l-1.15,3.1,2.53,2.34c2.82,2.58,2.86,2.96.95,6.11-.52.86-.86,2.15-.76,2.86.14,1.24.33,1.34,2.91,1.57,3.15.29,3.67.76,3.67,3.67,0,1.91.1,2,1.67,2.34,2.29.43,2.82,1.24,2.48,3.77-.29,1.96-.19,2.19,1.1,3.1,1.38,1,1.53,1,4.77.29,1.81-.43,3.86-.76,4.53-.76,1.72,0,3.58,2,3.58,3.82,0,2.05-.62,3.05-2.62,4.25-1.67,1-1.72,1-.95,2.43l.76,1.43,2-1c1.86-1,2.43-1.05,9.64-.72h0ZM400.96,222.77c1.91-1.05,3.72-1.77,4.06-1.57.33.19,1.72,1.19,3.1,2.24l2.53,1.91,3.05-1.05c1.67-.62,5.11-1.38,7.68-1.72,2.53-.38,4.68-.76,4.82-.91.14-.1-.1-.72-.52-1.34-.43-.57-.76-1.53-.76-2.1s-.33-1.29-.72-1.62c-.52-.43-.72-1.57-.72-4.25v-3.63l-2.77-2.43c-1.48-1.34-3.24-2.72-3.91-3.05-.62-.33-2.1-1.62-3.2-2.82-1.81-2-2.05-2.15-2.77-1.43-.67.67-.67,1,.24,3.82,1.34,4.39,1.29,6.3-.33,7.59-1.24.95-1.72,1.05-5.87.81-3.86-.24-4.91-.14-6.97.72l-2.48,1-.19,2.67c-.1,1.48-.72,3.72-1.34,5.01l-1.1,2.34,1.29,1.15c1.57,1.34,2.05,1.24,6.87-1.34h.01ZM488.85,216.28c9.11-2.86,9.83-2.91,14.55-1.1l2.91,1.15,1.48-1.1c1.53-1.15,2.58-1,3.91.62.52.62.81.52,2.29-.48.95-.62,2.24-1.15,2.86-1.15.76,0,1.29-.38,1.62-1.29.29-.76,1.1-1.96,1.81-2.77.76-.76,1.53-2.19,1.67-3.15.29-1.72.62-2,3.77-3.01,1.48-.48.86-1.15-2.72-2.91-3.86-1.96-9.83-3.1-15.98-3.1-3.39,0-3.58.05-5.44,1.72-1.81,1.67-2,1.72-4.58,1.48-1.48-.14-3.91-.81-5.44-1.48-3.48-1.57-4.06-1.57-8.97.24-3.1,1.15-4.34,1.86-5.44,3.2-.76.95-2.86,3.29-4.68,5.2-1.81,1.86-3.15,3.63-3.01,3.86.14.24,1.1.57,2.15.76,1.72.24,4.34,2.43,4.34,3.58,0,.24.43.95,1,1.67,1.15,1.48.38,1.57,11.88-1.96l.02.02ZM430.16,217.62c0-.48-.62-2.15-1.43-3.67-.76-1.53-1.43-3.1-1.43-3.39,0-.33-.33-.62-.72-.62-.52,0-.72.57-.72,2.29,0,1.86.24,2.53,1.19,3.44.67.62,1.19,1.38,1.19,1.72,0,.52.67,1,1.57,1.1.19.05.33-.33.33-.86h.02ZM202.09,209.99c.86-1.67.57-4.63-.62-6.11-.62-.72-1.81-2.34-2.67-3.58-1.48-2.24-2.53-2.82-3.15-1.81-.19.29.48,3.2,1.48,6.44,1.72,5.77,1.86,5.96,3.1,5.96.86,0,1.53-.33,1.86-.91h0ZM429.4,205.84c.14-.43.29-1.38.29-2.15,0-3.44,2.72-6.63,5.63-6.63.95,0,2.39.72,4.39,2.29,5.3,4.01,4.87,3.86,6.87,1.62,1.29-1.38,3.63-2.91,7.87-5.06,7.82-4.01,8.16-4.29,8.68-7.4.48-3.15.95-3.72,3.34-4.1,1.05-.19,1.86-.57,1.86-.95,0-.33-.76-2.19-1.67-4.1-1.1-2.34-1.67-4.2-1.67-5.53,0-2.43-.91-3.2-4.77-4.01-3.82-.76-4.77-1.53-4.77-3.72,0-2.34,1.19-3.86,4.58-5.77,2.96-1.72,5.34-4.01,7.49-7.16,2.24-3.34,3.77-4.82,5.96-5.77,1.77-.76,2-1.05,2-2.48,0-2.1,1.15-3.1,6.44-5.53l4.29-2-1.19-.91c-1.67-1.29-2.15-1.19-6.2,1.1-3.2,1.81-3.72,2.39-5.39,5.3-2.34,4.01-3.34,4.53-6.3,3.39-2.1-.76-2.24-.76-3.2.05-.52.52-2,2.43-3.24,4.25-4.53,6.68-7.59,9.07-14.98,11.64-3.86,1.38-7.82,3.72-9.3,5.49-.33.38-.86,1.72-1.15,3.01-.57,2.19-.67,2.29-2.91,2.86-1.24.33-3.67,1.29-5.34,2.15l-3.05,1.57v2.67c0,3.29-.67,4.25-5.2,7.35-3.2,2.19-3.39,2.39-4.29,5.49l-1,3.2,1.81,1.86c2.15,2.29,5.44,4.58,9.88,6.97q3.86,2.05,4.25,1.05v-.04ZM530.46,198.16c.81-1,3.91-.72,6.3.57,1.24.67,2.39,1.19,2.58,1.19s.72-.67,1.15-1.43c.48-.81,1.19-1.43,1.77-1.43s1.05-.43,1.24-1.05c.52-1.62,2.05-3.1,5.25-5.06l2.86-1.77-4.53-.33c-7.44-.48-9.97-1.29-14.46-4.58l-2.29-1.62-1.1,1c-.62.57-1.72,1.19-2.48,1.43-.76.19-1.62.81-1.91,1.38-1.48,3.01-4.58,4.2-9.54,3.67-1.81-.24-3.63-.14-4.58.19-1.53.52-5.58,4.1-5.11,4.53.1.1,2.72.43,5.82.76,3.1.29,6.87.86,8.3,1.24,3.1.81,7.82,3.2,9.07,4.58q.86.95,1-.86c.1-1,.38-2.1.67-2.43v.02ZM500.02,197.68c.38-.48,1.72-2.24,3.01-3.96,1.24-1.72,3.34-3.82,4.63-4.63,2.24-1.53,2.43-1.57,7.4-1.57,6.44,0,7.2-.43,7.2-3.96,0-1.38-.24-3.24-.48-4.25l-.48-1.72-2.39,1c-3.15,1.34-4.15.81-6.68-3.44-2.29-3.86-4.06-5.92-4.91-5.63-.29.1-.86,1.24-1.15,2.53-.72,2.72-1.72,3.67-3.58,3.24l-1.34-.29v3.58c0,4.44-.33,4.77-4.39,4.34-2.48-.24-3.15-.14-3.67.48-.95,1.15-2.58.95-5.68-.67-1.48-.81-4.63-1.96-6.87-2.62-2.29-.62-4.39-1.24-4.58-1.38-.24-.14-.57-1.57-.72-3.2-.19-2.05-.52-3.24-1.24-3.91-.95-.95-1-.95-2.86-.1-2.96,1.34-3.48,2.05-2.86,4.29.29,1.05,1.05,2.86,1.62,4.06.62,1.19,1.24,3.2,1.43,4.49.29,2.1,3.29,7.97,6.2,12.12.95,1.34,2.53,1.34,6.2.1,3.72-1.29,4.87-1.19,8.45.48,3.48,1.67,6.68,1.91,7.73.62h0ZM199.95,193.48l3.67-1.67-1.34-2.29c-.72-1.24-2.48-4.01-3.96-6.2-1.48-2.19-3.91-5.96-5.49-8.35-1.53-2.43-3.82-5.58-5.06-7.01-3.01-3.48-3.34-4.25-3.34-7.35s.43-3.67,4.68-6.35c1.48-.95,2.77-1.77,2.86-1.81.05-.05-.29-1.81-.81-3.86-1.24-4.77-2.43-11.74-2.43-14.03,0-2.1,1.19-4.01,5.49-8.83,1.62-1.81,4.2-5.25,5.73-7.63,3.2-5.01,4.58-6.58,8.97-10.12,3.82-3.1,3.77-3.96-.38-3.96-3.82,0-5.06-.67-8.16-4.44-1.53-1.86-6.01-7.2-9.97-11.79-6.87-8.02-20.18-24.19-22.76-27.67-.91-1.15-1.34-2.39-1.43-4.06l-.14-2.34-4.77-3.39c-2.62-1.91-12.69-9.07-22.43-15.98-9.69-6.92-21.52-15.36-26.24-18.8-4.72-3.39-10.69-7.68-13.22-9.49l-4.68-3.29-6.78,1.48c-3.77.81-14.89,3.2-24.72,5.3-28.25,6.06-44.56,9.59-45.18,9.83-.33.1-.62.67-.62,1.24,0,1.15-1.57,17.32-5.49,56.21C4.55,150.83,2.79,168.68,2.93,168.87c.1.14,4.2.91,9.16,1.77,4.91.86,11.4,1.96,14.41,2.48l5.44.95,1.34-.95,1.34-.95-1.38-2.43c-2.19-3.91-3.34-11.59-2.67-17.75.38-3.72,1.05-4.58,5.73-7.16,5.44-3.01,13.69-5.63,22.28-7.11,1.53-.29,1.96-.67,3.29-2.96.86-1.53,1.62-3.67,1.81-5.06.33-3.01,1.77-4.25,5.15-4.53,1.86-.19,2.86,0,4.96,1l2.58,1.29-2.77-2.53c-1.53-1.38-2.72-2.91-2.72-3.39,0-1.05,5.49-5.11,6.87-5.11.52,0,2.15.33,3.58.72,1.43.38,2.77.57,2.96.43.24-.14.76-1,1.19-1.91,1.05-2.24,2.29-2.86,3.77-1.91.62.43,3.2,3.1,5.73,6.01l4.63,5.25h2.34c4.58,0,7.16,2.19,7.87,6.58.19,1.1.57,2,.91,2,1.96,0,15.36,2.05,16.89,2.58,2.29.76,8.73,5.2,10.5,7.25.95,1.05,1.48,2.29,1.72,4.01q.33,2.48,3.1,3.72c2.96,1.24,3.34,1.81,3.34,4.96,0,1.48.48,2.34,2.82,5.01,1.53,1.81,4.06,4.44,5.58,5.92,3.77,3.58,11.55,9.97,12.17,9.97.24,0,1.43,1,2.62,2.24l2.19,2.19,1.77-2.05,1.81-2.1,3.77.86c2.05.48,4.53,1.05,5.44,1.29,2.39.57,9.16,8.11,10.5,11.69.52,1.43.95,2.91.95,3.29,0,.91-.19.95,4.06-.95h-.01ZM168.46,182.74c-.38-.76-1.48-2-2.43-2.72-6.25-4.82-13.36-11.07-16.56-14.55-5.11-5.63-5.96-6.87-6.35-9.3-.29-1.96-.48-2.19-2.29-3.01-2.53-1.05-2.91-1.57-3.82-4.96-.76-2.96-1.91-4.63-2.58-3.86-.43.48-2,5.82-2,6.73,0,.29,1.29,1.38,2.86,2.48,2.91,2.05,5.11,4.77,5.25,6.54.24,2.48.1,2.62-2.43,2.62-2.29,0-2.43.05-2.15,1.1.91,3.15.86,3.58-.95,7.2-2.1,4.34-2.48,3.72,4.77,8.45l4.72,3.05,10.31.29c6.01.14,10.78.48,11.5.76.67.33,1.57.57,2.05.57.76.05.76-.05.1-1.38h0Z"/>
    <path class="cls-2" d="M475.68,239.62c-.86-.52-1.62-2.29-1.62-3.63,0-1.19.1-1.24,2.86-1.24h2.86v1.62c0,2.34-2.53,4.29-4.1,3.24h0Z"/>
    <path class="cls-2" d="M491.33,233.23c-.33-.33-.57-1.19-.57-1.91,0-.86-.24-1.34-.72-1.34-.91,0-1.53-1.19-1.91-3.96-.52-3.58,1.1-4.77,3.39-2.48.76.76,1.72,1.19,2.77,1.19.81,0,1.96.29,2.43.67.81.57.86.81.33,1.91-.33.76-.43,2.05-.29,3.1.24,1.57.14,1.96-.81,2.62-1.29.91-3.82,1-4.63.19h0Z"/>
  </g>
</svg>