<?xml version="1.0" encoding="UTF-8"?>
<svg xmlns="http://www.w3.org/2000/svg" version="1.1" xmlns:dc="http://purl.org/dc/elements/1.1/" xmlns:mapsvg="http://mapsvg.com" xmlns:rdf="http://www.w3.org/1999/02/22-rdf-syntax-ns#" xmlns:svg="http://www.w3.org/2000/svg" viewBox="0 0 792.49 516.88">
  <!-- Generator: Adobe Illustrator 29.7.1, SVG Export Plug-In . SVG Version: 2.1.1 Build 8)  -->
  <defs>
    <style>
      .st0 {
        fill: #002087;
      }

      .st0, .st1 {
        stroke: #1d1d1b;
        stroke-miterlimit: 10;
      }

      .st1 {
        fill: #253285;
      }
    </style>
  </defs>
  <g id="_Слой_1" data-name="Слой_1" mapsvg:geoViewBox="55.997099 45.594337 73.133286 37.176101">
    <path id="UZ-AS" class="st0" d="M126.55,26.2l-2.91,5.49-.86,2.93-.52,3.27,1.73,2.41.86,2.58-1.55,2.24-2.41,4.47-1.21,1.89,1.9-.86,1.38-1.73,1.21-.86,3.27.51,2.07.51.17,2.76-2.41.34-.17,7.06-1.72-.86-1.55.35-1.56,1.72.52,2.07,2.75,2.23,2.58,1.55-.86,2.76v3.44l-1.21,2.58-2.41.86-1.55-.86-1.03-2.41h-1.39v2.93l1.04,1.38.17,5.34.35,3.45,2.58,1.55,1.89-2.06,2.07-3.62,1.55-3.45,2.06-1.21,2.58,1.38,2.07-.68-.69-2.41-1.04-2.24-.68-3.95.51-2.24,1.21-1.21,1.55-.17h1.9l.86-3.62,2.41-5.17,2.75-4.64,1.73-5-.31-6.61h0l48.57,35.06h0l-3.33.31.86,1.72,1.38,1.21.86,1.21-.69,3.27-2.41,4.3-3.96,3.96-5.34,4.31-1.38,2.93.86,1.55-1.04,1.55h-2.93l-.51,2.24-6.03,2.41-4.13,1.38-4.3.86-3.11-1.04-1.72.52-3.27.68-1.04-.86-2.07-1.21-3.1,1.89-3.79-.17-5.17-.51-2.58-.35-2.23-1.89-4.48-.68-1.55-1.56-1.89-.86-.86-3.11,2.41-1.55,1.55-1.89-.68-3.11-1.38-.86-2.24,1.04-4.3,1.38-1.56.68-2.06-.17-1.38.34-.86,1.73-1.72-.52-2.24-1.72-2.58-.17-3.44-1.38-2.58-1.21-1.9-2.24-1.89-4.47-.34-4.48,2.58-7.23.34-2.24-1.72-3.1-1.04-2.41-.17-5.17.34-3.96,1.72-4.64,2.58-4.13,1.04-4.82,2.24-2.24.17-4.99,1.72-2.75,3.28-2.93.17-4.13,1.38-2.75.15-3.04h0"/>
    <path id="TJ-SU" class="st0" d="M590.42,269.5l-1.29-1.51-1.03-.44.23-.32-.62.47-.23.41.16.57.86.03,1.04.77,2.72,3.69.17-.3-.55-1.35-.66-.84-.81-1.17Z"/>
    <path id="UZ-AN" class="st0" d="M653.41,294.18l-.09-3.09-.27-.72-3.43-1.09-1.92-.38-.21.15h-.28l-7.91-1.34-1.92-2.96-.53-.56-2.58-1.33-3.56-.51-.17,1.24-2.59-3.83h0l1.63-1.04-1.88-2.28,1.74-1.63,1.02-.68,7.35-1.87,3.15.03.49.22.62.48,2.85.63,1.25.13,4.17-.38.45-.23.34-.38,1.08-5.02h0l.21.13h.57s2.44-1.16,2.44-1.16l.65-.15,1.04-.79.97-1.06.59-.06.13.15,1.13.3.83.58.76.04.68.34.74-.08.67.15.56.27.22,1-.09.56-.7,1.3v.19s.16.19.16.19l.13-.02.39-.62.2-.04.21-.03.4.21.36.33,1.13,1.93.5.59.17,1.71.66.47,1.03.3,1.14.56,1.34.5.47-.17,1.56.25.8-.34.79-.16.58.18,1.89-.48.62.02.7.38,1.3,1.43.33.9.15.13.56.14.44-.03.56-.21.16-.26.55-.28.34-.41.5-.02.3-.18-.13-.46-.5-.34-.3-.42.37-1.21.2-.2h.37s.86,1.26.86,1.26l.77.17.97.65.81-.44,1.28.06.37.33.2.83-.37,1.49-.37.52-.38.27-2.46,1.04-1.42.21-.54.74-.99.68-1.2.67-.69.15-.04.2-.74.17-1.15.63-.86.82-1.32.43-.97-.13-.68.09-.27.31-.04.27.12.38.33.39.03.29-.63.52-.09.36.15,2.34-.06.92-.56.18-.44-.26-.82-.84-1.28-.29-.27.32-.04.65-.74.54-.12.21-.18,1.2-.5.92-.57.14-.36-.03-1.19-.96-1.26-.06-.59-.33-.78-.74-.44-.15-.58.25-.18-.03-1.17-1.43-.47-.86-1.19-1-.34-.16-.84.37h-.94s-.34.47-.34.47l.13.24.96.33.27.27.39.88.9.27.35.48-.03.47-.3.34-.88.09-.23.16-.15.44.12.38.92-.09.22.32.2,1.26.42.45.21.64-.98,2.28.24.71-.06.55-.15.14-.26.05-1.27-.33-.38-.23-1.33-1.37-.56-.39-.25-.09-.68.26-.27-.18-.43-.61-.25-.18h-.77s-.23-.09-.23-.09l-.15-.34.28-.97-.05-.21-.38-.23-.58.05Z"/>
    <path id="UZ-BU" class="st0" d="M371.92,348.04l-3.22,3.07-2.87,1.9-.49.09-3.76,4.03-.3.88.13.74.61,1.03.71.75.7,1,.2.44-.24.52-15.5,5.68-4.8,5.33h0l-1.82-1.97-.35-.03-1.01.26-1.8,1.04-.86.22-.9.02-1.18-.15-.73-.36-2.52-2.08-2.46-1.71-5.81-4.47-1.56-1-4-2.94-1.12-1.1-.98-1.19-.25-.54-.35-.32-.67-1.05-3.05-2.96-1.73-1.84-3.4-2.4-3.75-2.24-3.81-2.69-3.63-2.38-8.78-6.24-5.95-4.08-12.26-9.01-1.01-.94-.78-1.1-.14-.45-.17-.77.05-.47-.25-.6-.11-1.5-1.21-1.77.02-.56.59-1.02.07-2.25-.33-.86-.12-1.05-.5-1.75-.05-.98-.2-.66.03-.51.31-.78-.03-.86-.64-1.15-.99-.9-.62-.91-.05-.44.43-1.32.25-1.26-.03-.27-1.13-.44-1.13-.72-1.13-1.24-1.09-.49-1.13-.74-.34-.48h0l5.37-6.51,3.93-4.39.68-3.25.03-1.32-.58-.98-5.06-5.71-2.77-2.85h0l9.36-4.33-11.79-16.41h0l.48-.24,3.14-.79,11.59-2.75.9-.07,2.86,5.73,1.19,1.76,1.84,1.98,2.04,1.33,3.03,1.63,1.34,1.35,1.78,3.72,1.2,4.41.49,1.19.75-.08.38-.32,1.75-.04,2.7.78,4.6,1.98,7.25,3.93,8.41,4.88,1.81,1.43.48.9.29,1.27-.41,1.91,2.91-.08,2.26-.2.47-.16,4.6-10.43.89-.93,1.87-1,.75.13,1.43,1.65.09,6.51,13.85,1.62.16-.42.7-3.84.49-.16,4.29-.5,3.24-.05,1.94-.33.97-2.29.62-1.8.38-.16.83.19.68,2.42,1.83,8.66.98.94.68.36.88.29,7.38,1.02,5.07.54,6.82.98-1.2,7.92-3.41,2.4-.15.88-1.24,3.53-2.87,3.54-.55.52-.8.33-3.29-.2-2.48-.46-1.72-.85-.7-.68-1.71-1.11-1.76-.1-.95.41-.31.53.31,2.84-.38,3.73-1.1,4.88-2.16,4.09-1.82,2.11-3.76,2.28-.76.28-1.21,2.33,3.65,4.95,1.02.98,6.04,2.28.92.05,2.74-.67,4.2,3.16,3.76,8.03.31.98.25,2.89Z"/>
    <path id="UZ-FA" class="st0" d="M587.92,303.55l.09-.56-.2-.47-.63-.56-2.49-1.12-1.39-.28-.86-.34h-.27l-.77.37-.37-.03-.39-.18-.28-.32-.39-.95-.25-.27-.24-.09-.13-.63-.78-1.51-.05-.52.11-.17.69-.19.86-.69,1.02-.19.94-.49,1.75-.62h.68l.4-.35.1-.69.38-.38.12-.76.16-.34.34-.19.5-.07.66.06.41-.31.62-.02.37-.14.74-.95.95-1.9.31-.33.56-.15.58-.62.44-.15.13-.24.35-.07.35-.43.83-.19.34.24.27.03.04-.56-.15-.85.27-.2.24.21.56-.03.38-.5.26-.86.5-.45.05-.22h0l.29-.08.22-.22,4.17-1.07,2.88-.52,5.78-.09v.19l-.32.44-1.16,1.42.71,1.69,1.6,1.59,4.78,2.34.34.07.64-.36,2.58-2.44.65-.85.63-1.24,1.06-.68,3.52-1.91,2.94-.88h0l2.59,3.83.17-1.24,3.56.51,2.58,1.33.53.56,1.92,2.96,7.91,1.34h.28l.21-.15,1.92.38,3.43,1.09.27.72.09,3.09h0l-.42.03-.92-.22-.33.07-.44,1.18-.26.43-.54.51-.39.21-.32.06-.5-.17-.76-.5-.39.89.38,1.46-.12.29-.55.61-.06.49-.25.34-1.17.35-.89,1.15-.44.33-.68.97-1.02.44-.8.74-.1.22.18.43.84.2.84.76-.06.42-.95.88-.39.92-.25.27-.56.28-.53-.02-1.09-.79-1.73-.4-.41.33-.11.41.04.23.63.97.02.45-.64.43-.46-.03-2.13,1.36-1.13.36-.79.56-.3.05-.21-.12-.39-.73-.37-.44-.21-.06-.31-.34-.13-.31.15-1.63-.16-.69-.58-.78-.44-.31-.66-.07-1.05.1-.09.72.21,1.22-.18.81.07.48-.1.17-.25-.03-.69-.82h-.86l-.47.16-.79-.5-1.51-.68-.19-.46.16-1.15-.21-.44-1.11-.03-1.32-.34-.54-.43-.93-1.05-.35-.23-.42-.13-.43.19-.53.05-.14-.27.08-.33-.27-.21-1.31.55-.64.09-.23-.09-.13-.23-.02-.86-1.32.09-.86-.29-.86-.08-.71.09-1.18.39-.84-.02-.52.18-2.19,1.52-1.67.3-1.77.77-.38.25-.12.23.27.79-.09.83-2.04.06-1.67.3-.23-.08-1.45,1.08-2.11.94-1.35.28-1.2.1-2.68.59-.71-.29-1.01-1.83-.27-.75-.62-.33-.45-.8.11-.09.06-1.09.32-.85-.47-1.5.03-.19Z"/>
    <path id="UZ-JI" class="st0" d="M508.25,340.62l-.41.21-.18,1.32-.27.87-.7.62-.92-.33-.98.22-2.53-.4-1.59.69-.33-.1-.68-.65-.44-.21-1.21-.27-1.51-.18-1.08.12-.8.22-.63-.11-.87-.5-.63.09-1.91-.14-.83-.41-.63-.16-.93.08-.51-.13-.94-.73-.78-.32-1.17-.07-.79.09-1.6-.72-.82-.75-1.18-.07-2.08-1.41-.6.33-1.04.27-1.65-.71h-.34s-.75.86-.75.86l-.93.33-.55.38-.8,1.31-.5.14-1.22.03-3.4,1.27-.1.58.17,1.38-.35.44-1.9-.47-.39.09-.3.68-.02,1.12.27.44h0l-3.88-3.27-.88-.9-.56-.82-.18-.81-.02-3.56.09-.32,2.75-4.48.65-.78.59-.46,1.85-.88,1.32-.33,1.11-.13-.07-.87-.92-5.1-.18-.21-10.15-2.16-4.11-.34-1.81-.68-4.99-3.36-.3-3.17.09-.3,1.06-.25.21-.14.38-1.15.06-.69-1.23-2.4-1.59-1.42-.72-3.51-.09-3.36.12-.66.71-1.57v-.94s-.83-1.86-.83-1.86l-3.94-.09-6.66-.79h0l.62-1.53,3.79-7.35,2.67-4.55.24-.63-1.34-5.87-.2-.45-.21-.2-3.65-.9-.81-.5-.62-1.09-.97-9.1,5.74-.19.25-2.51.19.03.44-4.07h0l14.88,1.12,3.97.44h2.33s.73.49.73.49l.74.11,1.07-.35,1.09-.17,13.18.4,1.21,1.1.74.2,1.75,2.13,2.84,2.63,1.26-1.11.72,1.02,2.61-1.69,1.18,1.1.5-.22.68.4-2.11.45-1.21,1.27,1.19,2.95-1.27,1.26.07,4.47-3.48.13-.62,1.95,1.23,1.71,2.09.58,4.94,2.91,3.07,3.45,3.24,1.15.38.33h0l-.15,2.43-.29.52-1.59-.09-1.8.46-.41,4.18.14.23,1.8-.87.28-.09.14.17-.13.66-.66,1.71-4.23,9.44-.17,1.3.13.82.29.77.56.83.27.04,5.6.27,3.91-.15,3.44-.7,1.95-.68,6.1-1.4.27.58-.86,5.48h0l-1.33.24-.08.12-2.47.72-.21.51.74.68,2.24,1.32,1.05-.03,1.84-.38,1.12-.48,2.46-.69,1.05-.47,2.93-.76,1.44-.18,2.69-.09.72.56.35,1.09.38,2.04-.27.56-.64.05-1.31-.31h-.77s-.64.02-.64.02l-1.3.3-1,.75-.18.89-.13.1-.39-.22-.26-1.1-.62-.94-.56-.09-.5.17-.21.24-.03.45.3.49.8.8.04.54-.35,1.15.03.26,1.28,1.2,2.23,2.77.46.94.03.64-.17.59-.61.62-.69.09-.53-.27-.51-.8-.06-1.52-1.15-2.75-.62-.75-.34-.06-.4.19-.1.34.07.94.89,1.69.69,1.64.03.59-.31.68-.31.23-.79.18-.26.33-.23,1.22-.21.19-.39.09-.48-.36-.27-1.09-.67-.76-.39-.11-1.26,1.05-.44-.26-1.03-.13-.08.98.26,1.43-.27,1.12-.42.73-.21.79-.26.48-.55.23-.54.03-.36.44.23.55,1.61,2.29-.23,1.47-2.03,2.29-.83.64Z"/>
    <path id="UZ-NG" class="st0" d="M652.54,260.6l-.43-.72-.39-.25-.38-.06-.38.21-.9-.3-.65-.03-1.61,1.16-.3.07-.58-.26-1.49-.96-.98-.27-1.04-.12-.99.68-.39-.19-.48-.04-1.39-.56-.27-.35.02-.75-.48-.05-.32-.17-.06-.18.55-1.71.79-1.38.67-.68.4-.7.48-1.15-.04-.21-.92-.5-.73-.88-.24-.56.11-1.11-.12-.32-.33-.24-.35.21-.29.48-.69.15-.21-.15-.05-.16.22-1.11-.53-.91-1.2-1.15-.9-1.89-.32-.09-.12.1-.09,1.45-.15.22-.27.06-.18-.35-.09-.58-.27-.23-.33-.03-.54.38-.1.34.35.56-.05.48-.23.18-.36-.22-.35-.61-.09-.39.08-.37.72-.94.39-.71.06-.4-.21-1.21.11-.26-.05-.63.37-.77-.3-.52-.98-.04-.31.09-.66.62-.65,1.16-.38.43-1.08.37-.21.3.04.36.27.21.98.09.49.2.43.67.11.58-.29,1.04-.38.69-.03.35.68,1.05-.25.56-.56.62-.31.6-.23.84h-.19s-.31-.21-.31-.21l-.22.21-.27.62-.51.42-.15.5-.15.03-.21.81-.33.27-.51-.14-.52-.59-.34-.19-.75-.02-.36.3-.57.12-.7-.44-.27.06-1.23,1.47-.04.35.21.66-.22.73v.45l.15.32.74.32.26.62-.76,1.71-.27,1.7-.61,1.38-.03.32-.88.96-.45.03-.22-.15-.13-.25-.2-1.51-.2-.42-.68-.71-.33-.16h-.46s-.44.27-.44.27l-.3.35-.2,1.21-.34.65-.68.64-.44.1-.33-.09-.12-.26.19-2.04-.22-1.22-.22-.36-.81-.54-.26-.03-.53.25-.11.34.03.46-.27.2-.24-.05-.37-.91h-.27s-.3.25-.3.25l-.4.62-.41-.02-.22.13-.71.75-.43.25-.34.03-1.04-.37-.35-.32-.52-.87-.68-.16-1.05-.68-.5.03-2.28,1.55-.48-.17-.46-1.05-.79-.74-.74-.46-.5-.73-.45-.43-.23-.03-.61.27-.4.58-.71,1.76-.26.38-.28.14-.74-.3-.43-.52-.19-.77.03-.93.63-.81.15-.51-.09-.3-.53-.78-.21-.63-.06-1.53.36-.79.21-.99-.42-1.75-2.18-3.49-.36-1-.16-.14-1.04-.29-.27.03-.98.73-1.05-.05-1.3.41-.84.72-.35.63-1.44,1.19h-1.78l-.43-.46h0l-.58,1.65-2.54,3.52.57,6.24,1.63,2.24.56,1.15.21,1.99.03,1.5-.13.75.17.36h0l.38-.02.62.34.23.58.94.76.06.53.27.21.75,1.02.58.02.47,1.17.86,1.07.33.76.95,1.41.39,1.01h.23s.1.33.1.33l.83.71.48,1.17.71.27.45.4.62.85-.41.33-.15-.08-.25.15.07.27-.16.25-.32.09-.49-.21-.4-1.04-.32,1.06.03.61.27.55.71-.21,1.05.09.73.38-.24.15.77.03.37.2.86.73.19.42h0l.29-.08.22-.22,4.17-1.07,2.89-.52,5.77-.09v.19l-.32.44-1.16,1.42.71,1.69,1.61,1.58,4.77,2.34.34.07.65-.36,2.58-2.44.65-.86.64-1.24,1.05-.68,3.52-1.91,2.94-.88h0l1.63-1.04-1.88-2.28,1.74-1.62,1.03-.68,7.35-1.87,3.14.03.5.21.62.48,2.85.64,1.25.13,4.17-.38.45-.23.34-.39,1.08-5.01h0l-.36-.22-.38-.5.14-.28,1.08-.26.45-.35.4-.87-.38-.7-.66-3.96h0ZM592.27,273.16l-2.72-3.69-1.04-.77-.86-.03-.16-.58.23-.4.62-.48-.23.33,1.03.44,1.29,1.51,1.48,2.01.55,1.35-.18.31Z"/>
    <path id="UZ-NW" class="st0" d="M437.91,255.33l-.44,4.07-.19-.03-.25,2.51-5.74.19.97,9.1.62,1.09.81.5,3.65.9.21.2.2.45,1.34,5.87-.24.63-2.67,4.55-3.79,7.35-.62,1.53h0l-1.08-2.97-1.59-2.28-.83-.96-.5-.23-1.8,1.64-2.01,1.1-1.18.09-1.57-.21-.89-.68-.88-1.33-1.02-.08-.95.16-.78.92-1.84,4-.5,4.2.21.3.46.17.32.62-.15,1.94-.75,5.24-.74,1.15-1.97,5.19.17.84.68.09,1.22-.79.7.06.15.38-.12.96-.37.53-2.99,2.81-1.39.65-7.62,1.65-1.04-.17-4.6-1.97-1.79-.98-.39-.89-.86-1.33-4.69-1.77-.86-.15-.44.24-.3.49-.14.6.04.83-.36,4.96-1.57,4.74-.61,1.1-.44.26h-.5s-2.44-.74-2.44-.74l-.86-.42-7.4,2.5-.43.3-.07.32.28.66,1.27,1.31.83.69.8,1.24,1.15,4.47-.15.83-.44,1.25-1,2-.03.54.15.69.69,1.55,1.81,3.25h0l-.34.37-.45.18-2.22.34-1.19.32-.68.33-1,.69h0l-.25-2.89-.31-.98-3.76-8.03-4.2-3.16-2.74.67-.92-.05-6.04-2.28-1.02-.98-3.65-4.95,1.21-2.33.76-.28,3.76-2.28,1.82-2.11,2.16-4.09,1.1-4.88.38-3.73-.31-2.84.31-.53.95-.41,1.76.1,1.71,1.11.7.68,1.72.85,2.48.46,3.29.2.8-.33.55-.52,2.87-3.54,1.24-3.53.15-.88,3.41-2.4,1.2-7.92-6.82-.98-5.07-.54-7.38-1.02-.88-.29-.68-.36-.98-.94-1.83-8.66-.68-2.42-.83-.19-.38.16-.62,1.8-.97,2.29-1.94.33-3.24.05-4.29.5-.49.16-.7,3.84-.16.42-13.85-1.62-.09-6.51-1.43-1.65-.75-.13-1.87,1-.89.93-4.6,10.43-.47.16-2.26.2-2.91.08.41-1.91-.29-1.27-.48-.9-1.81-1.43-8.41-4.88-7.25-3.93-4.6-1.98-2.7-.78-1.75.04-.38.32-.75.08-.49-1.19-1.2-4.41-1.78-3.72-1.34-1.35-3.03-1.63-2.04-1.33-1.84-1.98-1.19-1.76-2.86-5.73-.9.07-11.59,2.75-3.14.79-.48.24h0l-17.9-24.52,10.99-6.07-5.77-10.39,1.08-13.49,23.66-44.66-13.21-3.58-5-8.97h0l36.24-7.06,17.49-3.09,2.98.58,2.57.31,8.3.9,5.07.33,2.05.36,12.13.93,11.67.57.17-.13.73-.03,9-4.42,5.99-2.62,3.75-1.87,1.76-.44.92-.09,1.43.06.71.27.65.5.85.98,4.9,10.8,1.73,1.63,3.08,3.2,9.31,8.28,1.28,5.19,5.68,18.3,10.75-5.06.3,26.77-.04,6.17-.5-.15-2.07-1.05h-.21l-.09,5.65-.78.94-.26,14.23.06,1.84,20.65,2.5,2.98,33.96,6.7.5Z"/>
    <path id="UZ-QA" class="st0" d="M371.92,348.04l1-.69.68-.33,1.19-.32,2.22-.34.45-.18.34-.37h0l.59.14,15.01.45,1.27-.15,1.12-.47,1.22-.92.16-.23.03-.28,3.69.75,2.82,3.26,2.37,3.98.08,1.27.19.18.62.21,2.63.67,1.31-.03,1.89-1.18,2.8-1.43,6.46-1.6.54.14,1,.64,1.41,1.23,1.4.98.59.28h.26s3.11-1.34,3.11-1.34l.7-.82.94-1.52.71-.81.69-.24,1.02-.05,7.33,1.31.54.57.42,1.13-.09,1.08-.39,1.45.05.5.28.41.8.45,1.62.13,3.32-.21.7-.18.36-.41.09-.3-.06-1.52.37-.41.75-.04,3.82,1.09,2.19.93,3.28,1.02,1.41.27.86-.2h0l.33,1.35,1.19,2.06.62.64.82.45,1.51.32.53.35.73.25.68.02.88-.19.92.16.87.4.56,1.43.49.2,1.36.07.24.25v.49s-.31.44-.31.44l-.18,2.14.38,1.08.11,1.75.33.48h0l-.68.7-.84.5-3.41.2-.74.22-.44.21-.57.49-.38.72-.05.34.46,2.69.87,1.8.33.39.13.44.11,3.59-1.15,3.68-.46-.15-1.21-1.22-.86-.27-1.22-.06-.98.28-.38.29-.5.55-.69,1.11-1.02,1.9-7.6,7.6-.62,2.87-.14,1.3-.32,1.2-.38.74-2.07,2.08-1.57,1.09-3.03,1.58-9.91,10.35-.37,1.07-.89,3.65.23.77h0l-2.04-2.39-.9-.57-1.27-.52-2.73-.3-2.25.7-.49.05-1.08-.28-1.05-.92-2.39-1.4-1.57-1.77-1.1-1.99-.4-.26-1.63-.09-2.99-.88-.54-.34-.43-.83-1-.34-.74-.11-.65-.68-.4-.15-1.17.06-.71-.23-.77-.51-1.63-1.68-.77-.21h-.92s-.83.24-.83.24l-.62,1.2-.48-.06-.12.09-.14.55-.32.15h-.45l-4-.82-8.49-3.35-1.67-.96-5.48-3.53-1.58-1.27-2.31-2.16-6.51-6.5-.5-.33-2.34-1.07-2.99-1.14-2.51-1.17-1.48-1.08-.52-.56-7.68-4.75-2.33-1.63-4.74-4.39-1.02-1.12h0l4.8-5.33,15.5-5.68.24-.52-.2-.44-.7-1-.71-.75-.61-1.03-.13-.74.3-.88,3.76-4.03.49-.09,2.87-1.9,3.22-3.07Z"/>
    <path id="UZ-QR" class="st0" d="M146.24,40.41l.3,6.6-1.72,5-2.75,4.65-2.41,5.17-.86,3.62h-1.89l-1.55.17-1.21,1.21-.51,2.24.69,3.96,1.04,2.24.69,2.41-2.07.69-2.58-1.38-2.07,1.21-1.55,3.45-2.07,3.62-1.89,2.07-2.58-1.55-.34-3.45-.17-5.34-1.04-1.38v-2.95h1.38l1.04,2.41,1.55.86,2.41-.86,1.21-2.58v-3.45l.86-2.75-2.59-1.55-2.75-2.24-.51-2.07,1.55-1.72,1.55-.34,1.72.86.17-7.06,2.41-.34-.17-2.75-2.07-.51-3.27-.51-1.21.86-1.38,1.72-1.89.86,1.21-1.89,2.41-4.47,1.55-2.24-.86-2.58-1.72-2.41.51-3.27.86-2.93,2.91-5.5h0l19.68,14.19h0ZM113.46,20.39l-.15,3.04-1.38,2.75-.17,4.13-3.27,2.93-1.72,2.75-.17,5-2.24,2.24-1.04,4.82-2.58,4.13-1.72,4.64-.34,3.96.17,5.17,1.04,2.41,1.72,3.1-.34,2.24-2.58,7.23.34,4.47,1.89,4.47,1.89,2.24,2.58,1.21,3.45,1.38,2.58.17,2.24,1.72,1.72.51.86-1.72,1.38-.34,2.07.17,1.55-.69,4.3-1.38,2.24-1.04,1.38.86.69,3.1-1.55,1.89-2.42,1.57.86,3.1,1.89.86,1.55,1.55,4.47.69,2.24,1.89,2.58.34,5.17.51,3.79.17,3.1-1.89,2.07,1.21,1.04.86,3.27-.69,1.72-.51,3.1,1.04,4.3-.86,4.13-1.38,6.03-2.41.51-2.24h2.93l1.04-1.55-.86-1.54,1.38-2.93,5.34-4.3,3.96-3.96,2.41-4.3.69-3.27-.86-1.21-1.38-1.21-.86-1.72,3.32-.3h0l18.55,13.39,1.89,6.03,5.19,5.24,5.47,6.6.25.55.55.5,2.16,2.57,4.88,6,14.4,17.88,1.39,1.33.47.04h0l5,8.98,13.2,3.58-23.66,44.65-1.08,13.49,5.77,10.39-10.99,6.07,17.9,24.52h0l11.8,16.41-9.36,4.33h0l-2.18,1.04-.56-.16-.23-.19-3.9-6.34-1.28-2.37-6.84-7.54-2.63-1.63-3.01-1.59-7.66-1.76-2.6-.02-.53.17-1.19.66-.67.76-1,1.97-.44,1.6-.62.66h-1.27l-1.92-1.23-.21-.99-.32-.74-1.73-1.94-.61-.52-.63-.25-1.85-.31-1.21-.5-5.1-3.88-7.04-6.25-1.34-1.28-2.87-3.34-4.42-4.13-.59-.27-.57-.56-.32-.39-2.63-4.61-.35-2.1-.03-2.25-.15-.5-.33-.41-4.52-.96-3.64,1.19-1.63.72-2.28,4.47h0l-.19-.45-.43-.51-.47-.33-2.07-.71-.69-.44-1.52-1.87-.15.03-.28-.3-.75.17-1.08-1.06-.16-.69.16-.29.48-.38,2.41-.17.3-.38-.17-.68-.44-.62-.35-.83-.19-.8-.14-1.94-1.08-1.4-.03-.57.15-.41.93-.5.36.16.73.09.39-.09.38-.37.21-.33.02-.55-.42-1.02-.41-.48-.85-.51-1.5-.21-.5-.21-.7-.61-.71-.96-.58-1.16-.54-.48-1.69-.55-.89-.72-.27.47-.39,1.22-.31.3h-.43s-1.54-.46-1.54-.46l-.58-.3-.39.02-.46-.18-1.69-.03-1.34.32h-1.29l-1.15.14-6.34.09-.49-.38-.62-1.2-.56-.26-.75-.91-3.46-3.45-.03-.34.39-1.06-.09-1.05-2.92-3.81-.4-.39-.95-.56-.34-.05-.93.26-.82.66-.49.21-2.22-.15-.6-.19-1.35-.74-1.94-.56-.57-.27-1.48-1.28-3.58-3.93-4.11-4.58-2.63-3.34-.41-.37-.03.73-.27,1.01.09.47.76.76.03.25-.15.44-.29.19h-.36s-.47-.27-.47-.27h-.54l-.44.54v.15l.59.49.22.36-.36,1.86-.27.42-.42.26-.98-.32-2.27.43-.92.05-1.13-.55-1.04-.21-1.02-.49-1.27-.35-2.48-.51-.77.03-1.21.49-.89.51-1.99,1.66-.53.05-.35.3-.15.59.27.65,1.59,1.15,2.03,1.14.85.33,1.15.21.38.46,2.28,5.3,1.11,1.75.49.58.16.8-.03,1.04.38.34.45-.11,2.69,1.69.82.68.11.61-.44.89-.32.22-.37.02-1.8-.43-1.6.33-.16-.57.1-1.73-.09-.9-.69-2.45-.61-1.15-.76-.85-1.07-.72-4.15-1.07-.68.04-1.86.97-1.11.41-.16-.09-.16-.62-.79-.56-.25-.32-.23-1.03-.73-.64-.82-.15-1.22.27-.85.58h-.45s-.23.24-.23.24l-.34,1.57-.25.64-.27-.11-.63-.74-.38-.09-.57.19-.19.33-.24,1.33.29.67.76.7.38.62.28.92-.02.46-.32.9.03,1.21-.21.95.1,1.33-.17,1.38-.15.51-.29.33-.4.14-.73-.03-1.42-.59-.38.09-.24.44-.29,1.03.6,1.03.38.94-.16.36-.74.1-2.62-.44-2.22.76-1.51.8-.63.15-.51-.02-1.39-.85-1.6-.32-1.96-.15-4.42.24-1.68.62-2.16,1.06-1.87,1.37-1.08.93-.96,1.38-.35.74-.58,1.36-.92,2.85-.52.73-.97.94-.61.37-1.17.44-1.85.55-.62.38-.74.68-.79,1.64-.27,1.75-.38,1.57.04,2.35.26,2.29-.12,2.34.48,2.03.34.85.33.43-.02.21.31.14.45.88.21.98.08.68-.17,1.04v2l.36,2.69.26.85.33.62,1.58,2.26.78.02,1.67-.51.37.34.03.44-.27.61-.34.34-.45.28-1.69.59-.72.68-.39.75-.03,1.28-.27.57-.42.46-.47.25h-1.13l-1.54-.38-3.39-.29-3.55-.5-5.77-.36-3.22-.07-5.03-.58-2.99-.22h-1.61s-4.43-.39-4.43-.39l-8.06-.33-.07-198.93,1.3-.33,1.22-.54,25.78-8.43.02-.11,1.43-.25.29-.3.86-.29,11.24-3.59,37.35-11.55,5.69-1.9,1.9-.39,14.59-4.31h0Z"/>
    <path id="UZ-SA" class="st0" d="M467.44,354.43l-.09.26-1.37-.27-.83.18-2.85.98-.2.25v.16h0l-.86.2-1.41-.27-3.28-1.02-2.19-.93-3.82-1.09-.75.04-.37.41.06,1.52-.09.3-.36.41-.7.18-3.32.21-1.62-.13-.8-.45-.28-.41-.05-.5.39-1.45.09-1.08-.42-1.13-.54-.57-7.33-1.31-1.02.05-.69.24-.71.81-.94,1.52-.7.82-3.11,1.33h-.26s-.59-.27-.59-.27l-1.4-.98-1.41-1.23-1-.64-.54-.14-6.46,1.6-2.8,1.43-1.89,1.18-1.31.03-2.63-.67-.62-.21-.19-.18-.08-1.27-2.37-3.98-2.82-3.26-3.69-.75-.03.28-.16.23-1.22.92-1.12.47-1.27.15-15.01-.45-.59-.14h0l-1.81-3.25-.69-1.55-.15-.69.03-.54,1-2,.44-1.25.15-.83-1.15-4.47-.8-1.24-.83-.69-1.27-1.31-.28-.66.07-.32.43-.3,7.4-2.5.86.42,2.44.75h.5s.44-.27.44-.27l.61-1.1,1.57-4.74.36-4.96-.04-.83.14-.6.3-.49.44-.24.86.15,4.69,1.77.86,1.33.39.89,1.79.98,4.6,1.97,1.04.17,7.62-1.65,1.39-.65,2.99-2.81.37-.53.12-.96-.15-.38-.7-.06-1.22.79-.68-.09-.17-.84,1.97-5.19.74-1.15.75-5.24.15-1.94-.32-.62-.46-.17-.21-.3.5-4.2,1.84-4,.78-.92.95-.16,1.02.08.88,1.33.89.68,1.57.21,1.18-.09,2.01-1.1,1.8-1.64.5.23.83.96,1.59,2.28,1.08,2.97h0l6.66.79,3.94.09.82,1.86v.94s-.7,1.57-.7,1.57l-.12.66.09,3.36.72,3.51,1.59,1.42,1.23,2.4-.06.69-.38,1.15-.21.14-1.06.25-.09.3.3,3.17,4.99,3.36,1.81.68,4.11.34,10.15,2.16.18.21.92,5.1.07.87-1.11.13-1.32.33-1.85.88-.59.46-.65.78-2.75,4.48-.09.32.02,3.56.18.81.56.82.88.9,3.88,3.27h0l1.91,3.99.71,1.97.8,1.67.18.69-.05.13Z"/>
    <path id="UZ-SI" class="st0" d="M521.51,309.06l-1.38.83-1.1.28-2.04-.57-.84.38-4.65,1.49h0l.86-5.48-.27-.58-6.1,1.4-1.95.68-3.44.7-3.91.15-5.6-.27-.27-.04-.56-.83-.29-.77-.13-.82.17-1.3,4.23-9.44.66-1.71.13-.66-.14-.17-.28.09-1.8.87-.14-.23.41-4.18,1.8-.46,1.59.09.29-.52.15-2.43h0l3.12,2.66,1.62-.43,1.63,1.34-.46.98,4.17,1.22.69-.96,2.05.15,3.69-1.48-.72-1.79-2.06-1.1-.97-2.81-2.81-3.88.74-6.37-.86-2.16.74-.77-.75-1.19-3.1-.2v-1.11s4.2.27,4.2.27l.27.51,2.02-1.26-.02.21.27.08.17,1.03.57.21.68-.32.8.18.32.33-.12.28-1.23.47-.16.3-.03.48.46.91.34-.28h0l4.16,4.72,2.97,2.97,4.21,3.8,4.03,3.34.53.07,2.59,3.62-.43,4.02-.74,4.55-.86,4.24.02.91.12.53.43.9-.21,4.05h0l-.95-.3-2.2-.02-2.87.3-1.46.34Z"/>
    <path id="UZ-SU" class="st0" d="M501.95,413.13l-.88,3.02-.12,1.05-1.97,2.07-1.4,2.65.06,1.34-.4.95.08.68-.3.76-2.14,1-3.46.6-.69,1.23-2.7,5.77-.98,1.42-1.17.84-1.96,2.54-.9,2.08-1.09,2.08-1.36,1.31-1.02,3.32-.04,2.19.22,3.43-.48,5.7-.61,2.08-.58.38-.5-.95-1.28-1.03-.63-.19-1.18.13-.36-.05-.74-.65-.86-.5-.52.08-1.17.47-.57.46-.33.43-.6.08-.36-.56-.36-1.17-.63-.62-.7-.34-.57.12-.49.33-1.6,1.47-1.15.39-.98.58-1.08.09-1.57.4-.82.88-1.28.54-.46-.17-.74-.66-.15-1.31-.24-.42-.66-.32-.32-.74-.23-.23-.83-.33-.38-.29-.6.13-.39-.1-1.3-.73-.39-.61.31-1.31-.27-.72-1.48-.74-1.16-1.21-.37-.22-1.65-.62-1.61.11-3.06,1.36-1.35-.16-.7.06-1.91.65-1.67-.42h-.81s-.94.33-.94.33l-1.37-.32-1.24.2-1-.1-1.53.06-1.12.46-.34-1.72.15-.56.37-.53.74-.54.97-.5,2.6-.78.26-.62v-.64s-.36-.94-.36-.94l-3.9-4.74-.22-1.27.48-4.81-.25-1.31v-.51l.38-2.66.63-1.53.62-.96.66-.65.46-1.09.48-.62,1.95-1.14.37-.34.21-.71-.03-.76-.46-.9h0l-.23-.77.89-3.65.37-1.07,9.91-10.35,3.03-1.58,1.57-1.09,2.07-2.08.38-.74.32-1.2.14-1.3.62-2.87,7.6-7.6,1.02-1.9.69-1.11.5-.55.38-.29.98-.28,1.22.06.86.27,1.21,1.22.46.15,1.15-3.68-.11-3.59-.13-.44-.33-.39-.87-1.8-.46-2.69.05-.34.38-.72.57-.49.44-.21.74-.22,3.41-.2.84-.5.68-.7h0l.33.45.58.25.78-.27.53.21.89-.62,1.75-.16,1.15.7,1.26.12.9-1.15,1.75-.06.89-.47h.38s.95,1,.95,1l.87.21,1.57-.85,1.07.12,1.06.7.74,1.57.27.88,2.3,1.8.08.68-.12,1.06-.3.19.26,1.85-1.08.56-.5.77-.88.27-2.14.34-.3.48,2.16,3.15-.31.57-1.36.16-1.09,1.04.36,1.27.74,1.66v.38s-.41.48-.41.48l-.28,4.54,2.07,2.75.86.69-.32.96-.8,1.24-.21.86h.38s1.27-.55,1.27-.55h.39s1.43.81,1.43.81l1.21,2.05.18.68.07,1.16.19.2,1.15.41,1.24.61.86.59,1.69,2.16.02.33.62,1.13.93,1.27v.68s-.29,1.09-.29,1.09Z"/>
    <path id="UZ-TK" class="st0" d="M541.02,248.06l.04-.49-.08-.12h-.21l-.26.21-.11.32-.64.2-.61.64-.6-.06-.31.56-.47-.23-.49.09-1.37-.72-.17.02-.22.29-.7.32-.88-.18-.09-.15h-.12l-1.03,1.13-.09.73-.38,1.07-.12.74-.1,1.25.08.29.8.19.25.18.28-.15.41.21.27.72.14.04.31-.2.15.21.59.11.49-.05v-.41s.93-.74.93-.74l.93.08.62.2-.14.35.37.8.32.21.54-.08.9-.9.33-.74-.06-1.01-.33-.62-.25-.23.41-.65.29-.21-.11-.29.04-.41.25-.58.13-.1.34.04-.08-.56.24-.23.1-.41-.09-.27-.21-.12-.23-.27Z"/>
    <path id="UZ-TO" class="st0" d="M615.27,204.98l-.13-.33-.56-.44-.68-.33-2.85-2.57-.8-.46-1.5-.18-1.04-.6-.39-.02-.74.18-.98.43-1.07.99-.58.03-.8-.29-.36.03-1.51,1.92-.87.59-.82.37-1.01.76-.6.02-.91-.86-.44.14-.5.48-.57.62-.72,1.18-.7.56-.47.77-.84.67-.64.93-.13,1.08-.78,1.54-.94,2.56.04.17-.19.41-.63.22-.36-.02-1.05-.97-.64-.18-.13-.54.09-1.38-.47-.78-2.17-1.19-2.3-2.03-.32-.14-.59.12-.32.39-.26,1.81-.19.32-.83.74-.26.59-1.35.82-.27.43.11,1,.29,1.19-.07.92-.89.63-.82.27-.42.47-.46-.02-.99.47-.76,1.11-.92.77-.38.65-.63,1.72-.5.86-2.73,1.37-1.15.82-.62,1.83-.27.26-.28.1-.31-.1-.14-.25.04-.48-.33-.57-.33-.06-.58.17-.22.27-1.41,3.41-2.51,1.03-1.03-.89-.63-.28h-.43l-1.43.9-1.75.28-.21-.11-.72.11-.27.17-.17.38-.45.45-.58.28-2.34.56-.44.2-1.04.98-.25.44-.81.61-1.11,1.19-.34.46-.43,1.33-.2.24-.63.33-1.04.3-.33-.05-.28.1-1.44,1.22-.57.94.02.44.28.46,1,.65-.29.86-.35.18-1.89-.3-.45.2-.71.03-1.12.3-.4-.02-.86-.5-.48-.12-.94.11-.31-.1-1.28.27-.98.59-.55,1.63-.38.43-1.91,1.08-.98,2.43-.56.39-.44-.05-.5-.5-.25-.1-.44.14-1.69,2.63-.16,2.32-.2.32-1.19,1-.26,1.54-.18.12-.73-.13-.58.39-.56.74-1.21,1.17-1.31,1.73-.63.98-.41.94-1.42,1.79-.62,1.43-.13,1.29-.15.3-1.14,1.04-1.57.62-.89.74h0l4.16,4.72,2.97,2.97,4.21,3.8,4.03,3.34.53.07,2.59,3.62-.43,4.02-.74,4.55-.86,4.24v.91s.13.53.13.53l.43.91-.21,4.05h0l2.18.19.55-.04.9.32.93-.08.66-.21,1.11.27,1.68.03.96.53.41-.34-.72-1.81-.35-.36-1.18-.23-.35-.36.21-.73-.3-.5.15-.53,1.5.21.71-.05.97-.92v-.78s.29-.47.29-.47l-.02-1.04-.89-.71-.36-.43v-.71s-.24-.69-.24-.69l-.34-.3.21-.73-.4-.16-.52-1.77-.36-.43v-.71s.31-.35.31-.35l.03-.65-.56-.49-1.15-1.58-.06-.28.23-.55,1.33-.9,1.56-.21.74.15.26-.07.22-.23-.03-.15.34-.64.41-.2.22-1.09-.48-1.05-.29-.97.18-3,.05-.27.28-.33.17-.81,1.57-2.22,1.4-.17.56.28,2.16.6,1.04.13.64.63.73,1.46.21,1.02.47.67,1.08.77.62.75.59.09.34.18.43,1.11.26.35.56.13,1.39-.09.8-.5,1.2-2.58.38-.34.61-.18,1.22.35.26-.03.8-.86.95-.56h.37s1.36.83,1.36.83h.18s1.01-.95,1.01-.95l.65-.42,1.74-.25.71-.31.91-.77,1.22-.48,2.04-1.98.27-.38.24-.74.42-.5.5-.09.88.35.98.15,1.25-.8.75-.33.62-.87,1.4-.85,1.03-.03.58-.2.32-.31.44-.86v-.31s-.24-.8-.24-.8l.13-.62.58-.7.03-.65.26-.45-.24-1.09.09-.39.33-.24.34-.8.47-.51,1.11-.44.88.21h0l-.17-.36.13-.75-.03-1.5-.21-1.99-.56-1.15-1.63-2.24-.57-6.24,2.54-3.52.58-1.65h0l-.42-.86-.41-.48-.73-.48-1.04-1.24-1-.1-.43-.44-.54-1.26-.34-.23-1.12-.48-.92-.15-.83.05-.44.24-.7.09-.8-.21-1.07.08-.54-.32-.14-.32-.15-1.06.07-1.69.24-.63.35-.5,1.09-.46.59-.1,1.09.09,1.42-1.32,1.11.04.73-.34,1.29-1.25.5-.77.26-.2,1.77-.97.46-.14,1.42-.97.57-1.15.08-1.89.21-.42.53-.5,1.06-.48,1.86-1.3.28-1.04.96-.68.32-.36.63-1.31.9-.92,1.02-.49.56-.04.75.27h.35s.15-.17.15-.17l.15-.7.19-.17.58.39.89.31h.75s.37-.12.37-.12l.76-.77.26-.44.14-1.56-.78-1.35.29-.77.56-.56.1-.62.15-.25.51-.25h.68l1.6.89.69.17h.66l.9-.44,1.1-.94.58-.26,1.51-1.55.69-.27,2.29-2.19.92-.35.7-.03,1.09.27.34-.53.6-.46.38-.15.17-.24.09-1.34.28-.38h0ZM541.52,248.97l-.31.39.08.56-.33-.04-.14.09-.25.58-.04.41.12.29-.29.21-.41.64.49.64.15.47v.76l-.13.47-.81.98-.28.2-.55.08-.31-.21-.37-.8.14-.35-.62-.2-.92-.08-.92.74-.02.41-.49.06-.59-.12-.15-.21-.31.2-.14-.04-.28-.72-.41-.21-.28.15-.25-.18-.8-.2-.08-.29.1-1.25.12-.74.38-1.07.09-.72,1.03-1.13h.12l.09.15.88.18.71-.32.22-.29.18-.02,1.37.72.49-.09.47.23.31-.56.61.06.6-.64.51-.09.33-.53.38-.09.03.61.44.39.04.51h0Z"/>
    <path id="UZ-XO" class="st0" d="M253.26,287.27l-1.08-2.45-.44-.64-.59-.52-.26-.69-.14-2.37-.39-.63-.22-.88-1.04-1.75-.08-1.04.14-1.01-.06-1.69-.13-.41-.21-2.44.2-1.39-.19-.34-.44-.18-.15-.62.02-.55-.25-.69-.63-.8-1.26-.67-.49-.09-.38-.22-.26-.48.16-.8-.32-.9-.4-.74-1.04-.62-1.61-1.69-.97-.29-1.27-.86-1.74-2.06-.41-.26-1.09-.11-.56-.2-.42-.29-.35-.33-.24-.81-.33-.62-.73-.55h-.4s-1.11.48-1.11.48l-1.51-.12-.63-.19-1.38-.77-1.51-.25-.44.03-.4.27-.7,1.26.05,2.27-.38.68-.24,1.34-.37.78-.3.33-.42.28-.9.14-.13.12-1.43.16-.28-.09-1.13.04-.17-.11-.24.09-.6-.14-2.65-1.27-1.82-1.91-.29-.13-1.72.15-1.13-1.33-4.2-.19-.36.18-.89-.06-1.86.27-2.21-.1-1.44.27h-3.36s-4.07.27-4.07.27l-.75-.04-2.22.37-.81-.05-.62-.21-2.77-1.66-2.49-2.22-5.23-3.57-2.88-1.65-.99-.89-.49-1.06-.02-.59.14-.68.03-2.56.24-1.59.33-.69,1.83-1.71.21-.52v-1l-.23-.76-.97-1.73-.98-1.31-1.58-2.47-.33-1.28.44-1.06.48-1.92.21-.12.27.02.77.42.86-.02,1.69.62.95.45,1.09.9,1.02-.03.67.54.7.23.22-.34h.62s.22-.13.22-.13l.03-.38-.44-.6-.97-.76-.99-1.13-1.07-.49-1.41-.32-1.19-.74-.65-.73-.27-.62h0l2.28-4.47,1.63-.73,3.64-1.19,4.52.96.33.41.14.5.03,2.26.35,2.1,2.63,4.61.33.4.56.56.6.27,4.42,4.13,2.87,3.34,1.34,1.29,7.04,6.25,5.1,3.88,1.21.5,1.85.31.63.25.61.52,1.72,1.94.32.74.22.99,1.92,1.23h1.27l.62-.65.44-1.61,1-1.97.67-.75,1.19-.66.53-.17h2.6s7.66,1.77,7.66,1.77l3.01,1.59,2.63,1.63,6.84,7.54,1.28,2.37,3.9,6.34.23.19.56.16,2.18-1.04h0l2.77,2.85,5.06,5.71.58.98-.03,1.32-.68,3.25-3.93,4.39-5.37,6.51h0l-3.7-5.78Z"/>
    <path id="TJ-GB" class="st1" d="M712.2,344.87l.81.27.61-.13.38-.18h.47s.63-.1.63-.1l.91-.37h.52s.46.07.46.07l-.28.6.29,1.55.48,1.85-.08,1.65-.54.86-1.74,1.1-.35.8-.27.91-.32.78-.65.39-.48.2-.27.39.04.44.27.56.71.21.71-.15.71.08.82,1.07.51,1.36,1.42,1.29.39.62.29,1.54.51,1.07-.02,1.23.06.62,1.16,1.58.23.71.49.25.58-.09.7-.43.84-.16.52.3.35,1.44.45.83.28.72.1.73-.09.83-.41.33-.6.16-1.3-.1-1.17.11-.61.29-.99,1.18-.7,1.36-.2.99.15.65.38.36.76.42.18.32.29,1.58.41.96.09.47-.11,2.35.16.63.49,1.68.7.8.71,1.44.17.78-.09.45-.22.24h-.54s-.22.19-.22.19v.26s.36.36.36.36l.96.46,1.25.77,1.67.24.39.26.35.38.6,1.15.4.42,2.3.45,1.67-.57,1.35.33.76.07.25-.09.28-.32-.56-.8-.04-.24.11-.54,1.48-2.07.26-.52v-.58s-.11-.64-.11-.64l.09-.57.52-.73.4-.2,1.54-.11.91.18,1.07.76.4-.02.41-.25.3-.07.62.35,1.14.21,2.37-.36.19.07.71-.05.69.11.95.34.15.18,1.32.71h.66s.71-.15.71-.15l.63.17.77-.02.33.24.54.78.46.5.48.18h1.29s.56.42.56.42l.65.28.89.09.54.27.54.6,1.46.95.42.51.41.71.29.19,1.6-.33h.48s.49.14.49.14l.65.62.58,1.3.43.29.76-.06.31-.35.12-.27.44-.41.13.02.21.3v.45s-.24,1.06-.24,1.06l-.04,1.12.11,1.09.25.85v.46s-.27.81-.27.81l-.52.71-.05.19-.57.53-.45.12-.6-.18-.47.11-.47.31-.36.51-.09.54.06.4.6,1.47.1.47-.19.58-.58.57.12.21.56.4.12.99.26.69-.07.71-.62,1.41.51,2.01.56,1.36.26,1.32.22.73.31.43.67.41.13.22.17,1.03.27.67.2.28.41.13.26-.1.3-.28.37-.03.28.27.45.87-.03.92-.18,1.22.16,1.52-.05.61-.16.45.02.4.25.48.46.62.19.57-.06.25-.87,1.34-.12.39.09.36.24.35.36.2,1.08,1.09.39.15.3-.08.4.1.46.45.34.72.12.65-.05.24-1.34,1.09-.88,1.24-.6.34-.18.2-.3.47-.11.79-.54.48-.19.49.02.41.43.93.11.44.58,1.2.08.61-.02,1.5.13.63.26.18.38.04.48.36.14.29.26.3.67.14.82.69.22-.11.07-.3-.15-.95.06-.23.29-.1.33.14.79.74.69.35.3.53-.02.2.87,1.5.97.74.25.31.29.6.63.82.11.33-.09.38.11.52-.04.41-.18.37-1.27,1.24-.02.19.16.85.26.48.22.24.36.78-.34.33-.59.18h-.62s-1.24.18-1.24.18l-.59.22-.45.36-1.19.6h-2.34s-.56.07-.56.07l-.54.32-.33.39-.07.28.07.63-.05.57-.16.42-.47.21h-.33l-.56-2.04-.56-.52-.38-.49-.34-.87-.36-.53-.29-.61-.39-.27-.42-.67-.19-.13-.42-.05-1.6-.63-.83-.45-.37-.07-.17-.13-.61-.25-.05-.23-.29-.32-.36-.73-.09-.06-.02.15-.14.14-.02.28-.12.2-.27.13-.02.12-.31.11-.09-.06-.09.02-.06.11-.27.09-.07-.07-.2.02-.07.08h-.19s-.16.32-.16.32l-.24.06-.13-.03-.16-.23-.3.06-.14-.11h-.11s-.7.13-.7.13l-.33.15-.64-.05-.34.22-.41-.67v-.47s-.89-.44-.89-.44h-.43s-.41.31-.41.31h-.47s-.57.22-.57.22l-.38-.16-.58-.39-.25-.03-.71.57-.32.19-.41.07-.38-.11h-.58s-.32-.13-.32-.13l-.29-.24-.17-.39.12-.22-.03-.13-.55-.5-.42-.04-.46.04-.27.16-.1.12-.13.54-.09.11-.58-.04-.25.26-.22.07-1.34-.18-.28.02-.38-.27-.46-.04-.38-.22-.25-.02-.36.62-.07.33.48.42.09.33.24.17.08.13-.09.09-.44.1-.35.74-.35.34-.28.07-.48.65-.71.12-.42-.32h-.88s-.53.31-.53.31l-.2.23-.04.13-.39.1-.42-.09-.13.07v.13s-.23.21-.23.21l-.35.09-1.19-.16-.38-.2-.09.07v.12s.02.42.02.42l-.14.13-.13.02-.43.34-.27.11-.15-.31-.23-.03-.48.61-.51.4-.31-.11-.24-.31-.16-.07-.96-.13-.49.83-.02.32-.12.15-.83-.51-.23-.09-.12.02-.28.15h-.23s-.33.2-.33.2l-.56.18-.16.39-.17.16-.96.25-.54.5-.12.48.13.2-.13.24-.33.21-.37.14-.43-.33-.18.22-.33.17-.25-.39-.39-.09-.25-.25-.12.13-.16.06-.47.06-.08.23.11.26-.04.17-.18.11-.44-.26-.39-.11-.33-.55-.05-.24-.21-.16h-.47s-.15.06-.15.06l-.17-.15-.38-.18-.4-.06-.33.18-.58-.07-.16.25-.09.3-.1.11h-.23s-.55-.4-.55-.4l-.38-.42.02-.65-.09-.04-.29.04-.09-.05-.05-.13.56-.65.09-.05.51.08.25-.18.09-.45-.21-.32.36-.83h.32l.28.31.89-.09.54.18.36-.46.45.1.33-.2.46-.04.19-.09.07-.08.04-.34.14-.2.45-.18-.03-.13.42-.09-.21-.38.07-.69-.09-.6.06-.1v-.29s-.04-.3-.04-.3l-.11-.22v-.21l.2-.21.03-.11-.1-.45.22-1.71-1.89-.03-.27-.17-1.69-.51-.5.22-.42.47-.48.26-.29-.08-.3-.18-.71-.18-.64-.04-.86-.16-.05-.11-.25.02-.38-.28h-.13s-.77-.64-.77-.64l-.22-.04-.3-.25h-.38s-.54-.16-.54-.16l-.12.12-.37.04-.07-.1-.4.04-1.26-.03-1.64.36-.33.24-.32.38-.16.03-.88.61-.19.05h-.1s-.18-.17-.18-.17l-.02-.25.12-.26-.03-.16-.14-.2h-.15s-.14.12-.14.12h-.19s-.19-.12-.19-.12l-.06-.11-.47-.11h-.43s-.29.1-.29.1l-.2-.04-.33.06-.34.14-.31.22-.13.02-.26.24v.19s-.08.11-.08.11l-.2.15-.64.22-.37.34-.08.18.03.08-.38.38-.07.15-1,.64-.39.09-.44-.24-1.11-.03h-.15s-.62.3-.62.3l-.51,1.26-.25.36-.2.13-.31.05-.5.35-.17.49.07.21-.07.25.23.18-.43.7-.16.14-.53.23-.28.2-.17-.02-.13.12-.14.04-.09.11-.07-.03-.1.08h-.16s-.1.1-.1.1h-.23s-.4.2-.4.2l-.29-.14-.26.03-.79.27-.28-.02-.23.11-.59.13-.12.2-.24.12-.63.04-.08.12-.49.22-.08.18-.09.06-.05.25-.22.08-.16.12-.04.1-.09.02-.05.09.03.11-.08.09h-.1s-.11.22-.11.22h-.18s-.22.31-.22.31l-.53.37-.04.1-.19.06-.31.25-.33.03-.04.09-.23.14-.02.08h-.13l-.31.13-.09-.12-.1.04-.16-.05-.38-.23-.27.14-.25-.05-.33.09-.81.81-.06.19-.21.19-.03.18-.24.13-.1.23-.22.18-.08.32-.1.05-.08.42.06.11-.11.03-.34.92-.03.25-.18.46-.09.07-.08.32-.21.24-.21.44.02.07-.1.27-.31.32-.03.15-.18.12-.17.43-.14.14-.02.18-.19.29-.34.23-.19.21-.04.25.12.04-.06.29-.52.56-.33.25-.36.86-.05.4-.21.3-.11.31h-.13s-.29-.2-.29-.2l-.39.1-.33-.45-.51-.09-.64.27-.38.33-.21.08-.3.29-.29.09-.13-.11-.22-.02-.11.2-.11.07-.36.02-.4.16-.17.02-.13-.13h-.27s-.27.32-.27.32l-.14-.03-.11.09-.45-.12-.54.05-.06.06h-.58s-.29.25-.29.25l-.33-.09-.35-.34-.33-.02-.56-.28-.58.08-.1-.07-.47.11-.22.43h-.11s-.17.11-.17.11l-.49.04-.27.17-.4.13-.2-.07-.29.04-.13-.12-.6.08-.24.33-.19.14-.33.02-.28.22h-.44s-.46.27-.46.27l-.38.33-.28.15-.16.22-.04.29-.21.13-.14-.03-.62.11-.24.12-.13.11-.35.54-.22.15-.79.11-.11.08-.18.31-.16.48-.16.2-1.09.62-.67.63-.12.19-.42-.03-.09.07v.13s-.08.09-.08.09h-.16s-.43.29-.43.29l-.15.31-.09.46-.31.55-.36-.04-.37.23-.25.07-.16-.12-.35.09-.14-.07-.16.06-.49.44-.14-.02-.07.07-.09.42-.4.24-.31.04-.5.24-.06.13-.16.12-.17.54-.46.25-.43.62-.19-.04-.13.1-.94,1.17-.28.09-.77.45-.54.19-.25.14-.2.22-.27.07-.39.76-.96.84-.23.47-.38.15-.26.26h-.13s-.18.27-.18.27l-.19-.06-.41.07-.41-.13-1,.34-.3.04-.51-.04-.61-.14-.44.16-.58.04-.32-.08-.42.19-.31.06-.43-.18-.54-.09-.17.03-.25.24h-.11s-.22-.15-.22-.15l-.25-.31-.36-.31-.36-.15h-.46s-.12-.13-.12-.13l-.15-.18-.05-.23-.35-.71-.26-.16-.28-.32-.2-.07-.32-.38-.24-.17-.4-.55-.18-.42-.3-.45-.05-.4-.13-.29-.02-.49-.24-.4-.16-.85-.33-.81-.16-.68.04-.42-.09-.16-.22-.1-.36-.45v-.19s.13-.35.13-.35l-.14-.26-.22-.15-.09-.21-.02-.42-.22-.47-.19-.31-.4-.39-.29-.18-.07-.22.02-.25-.12-.34-.06-.09-.27-.12-.28-.41-.13-.4v-.16s-.18-.33-.18-.33l-.03-.22.29-1.03-.09-.13-.04-.42.04-.19-.11-.22-.04-.28-.2-.24-.06-.24.02-.16.1-.12-.2-.37-.27-.25-.14-.25-.22-.15-.15-.42-.34-.36-.06-.39.03-.29-.06-.06.02-.09.12-.07.02-.34.13-.42.29-.28.1-.31-.07-.21.08-.28-.16-.4.13-.35-.08-.11-.02-.21.16-.17-.03-.53.11-.04.04-.23.13-.15-.04-.33-.23-.6.22-.63h.27s.2-.11.2-.11l.07-.3-.07-.28-.23-.23v-.2s-.08-.11-.08-.11l.05-.48.19-.09-.07-.18.24-.02.13-.29.34-.09.27-.27-.09-.02-.02-.08.07-.17.13-.08.07-.35-.11-.16.11-.38v-.21s.22-.25.22-.25l-.11-.41.08-.31.19-.28v-.21s-.12-.22-.12-.22l.06-.38.04-.1.39-.28.13-.33-.04-.18-.34-.2-.14-.31-.25-.21-.06-.28.21-.87-.06-.33.21-.5-.11-.17-.06-.32-.19-.2-.32-.04-.19-.24.06-.14-.02-.23.09-.14-.05-.24.1-.24.21-.04.35.08.22-.11.04-.13-.14-.23.04-.2-.04-.27.06-.27.19-.3-.03-.33.13-.26v-.4s.29-.16.29-.16l.39-.45.09-.13v-.31s.18-.28.18-.28l-.02-.15-.19-.2-.15-.4-.43-.76-.08-.31-.05-.72-.21-.3-.13-.03-.05-.13.12-.41.1-.12.03-.27-.04-.12.09-.11v-.63l.18-1.06-.06-.68.36-.71.14-.13.2-.46.2-.26.08-.32-.1-.3.04-.17-.03-.43.07-.28-.11-.43.07-.33.22-.2.28-.53.23-.76.05-.38.2-.2-.11-.32.13-.37-.07-.18v-.46s-.74-1.29-.74-1.29l.29-.33.22-.07.26-.47,1.62-.87.11-.09.13-.31.02-.2-.13-.52-.19-.36.03-.47-.14-.67.08-.33.11-.11.3-.78.06-.36-.28-.37-.09-.29.04-.13-.12-.1v-.45s.22-.58.22-.58l-.04-.31-.04-.18-.55-.67-.33-.06-.65-.26-.4-.51-.56-.18-.08-.13-.21-.04-.42.05-.2.04-.43.23-.2.34-.2.18-.35.04-.35.13v.12s-.35.28-.35.28h-.21s-.54.36-.54.36l-.44-.03-.22.09-.14.1-.02.28-.32.33-.08-.11h-.48s-.25.21-.25.21l-.18-.02-.14.1h-.14s-.18-.24-.18-.24l-.29.07-.61.49-.42.23-.36.08-.6.39-.16-.44v-.32s-.45-.6-.45-.6l-.03-.39-.25-.15-.45-.58-.07-.04-.28.03-.1.37-.24.33-.78-.09-.28-.18-.17-.39.06-.07.29-.02v-.18s.26-.09.26-.09l.02-.16-.16-.43.5-.82-.04-.56-.26-.38.09-.41.1-.16.25.04.06-.07v-.17s-.16-.26-.16-.26v-.12l.16-.18.45-.24.21-.3-.07-.27.08-.39-.42-.1-.07-.46.22-.03.15-.13.28.14.16-.05.17-.22.13-.34.04-.37.13-.15.24-.13.02-.11.02-.2-.07-.25.1-.77-.2-.36.03-.07.32-.1.04-.3.11-.23.3-.11.11-.89.27-.59.05-.25.24-.22.23.1.32-.11.44-.56-.36-.61-.14-1.31.18-.27.39-.29.05-.1v-.1s-.19-.31-.19-.31l-.23-.13-.12-.2.16-.38.16-1.27-.36-.57-.4-.24-.18.03-.45-.08-.28.09-.11-.3.1-.25-.31-.28.3-.39-.21-.64-.22-.06-.27.13-.16-.04-.26-.12-.29-.3-.86-.12-.25.16-.27-.06-.3.13-.25.03-.29-.15-.1-.29-.45-.15-.38-.02-.27-.28-.25-.14-.46-.61-.14-.11-.39-.05-.23-.16-.04-.29-.12-.23-.2-.77-.38-.79-.34-.16-.33-.03v-.44s-.23-.27-.23-.27h-.17s-.16.26-.16.26l-.2.04-.11-.06-.17-.3-.19-.15-.49.05-.17-.23.18-.45-.22-.22-.2-.05-.31.03-.25.13-.4.4-.34-.07-.09.13.16.51-.25.22-.2.03-.09-.05-.15-.34-.27-.31v-.54l-.3-.41-.07-.74-.35-.54.1-.48-.42-.37-.27-.02-.25-.13-.38-.41.08-.2-.16-.25-.34-.16-.34.47-.25.22-.38.16-.16-.09-.37-.06-.31.07-.08.53.69.38.09.2-.22.49.05.29-.17.17-.3-.03-.17-.25-.29.06-.1.04v.37l-.34.19h-.14s-.05-.26-.05-.26l-.62-.19.04-.21-.31-.24-.02-.1.11-.33-.04-.19-.27-.34-.57-.23-.41.04-.28.42-.27.07-.05.22.16.15v.08s-.15.25-.15.25l-.1.3-.3.13-.14-.02-.09-.11.06-.26-.04-.09-.69-.33h-.09s-.14.34-.14.34l-.19.11-.28.04-.22-.03-.27-.23-.41-.04-.06-.09v-.2s-.07-.03-.07-.03l-.17.07-.4-.08-.13.2v.3s-.2.27-.2.27l-.11.42-.17.36-.41.22-.45.33-.41.1-.75-.02-.25-.11-.12-.14-.1.02-.39.26-.52.45-.03.1.09.47-.11.32.03.09.33.08.12-.13.13-.03.2.2.06.16v.52s-.16.26-.16.26l-.2.18-.49.14-.34.17-.09.07.03.21-.4.2-.47.04-.25-.2-.37-.04-.42.11-.33.22.04.54-.04.13.18.58-.18.38-.18.21.02.15-.09.25.19.45-.13.34-.04.37-.15.15-1,.35-.38.25-.12.1-.08.22-.25.18-.07.38-.47.46-.11.53-.19.42v.8s-.51.65-.51.65l-.15.05-.21.2.06.27-.2.39-.14.11-.04.38-.15.12-.13.41.02.4-.11.32v.17s.06.61.06.61l.13.16.05.23v.13s-.09.11-.09.11l-.22.07-.25-.11-.54.39-.08.25-.12.02-.34.28-.6.05-.3.2-.22-.15-.33.12-.51.59-.12.66-.09.05-.35-.04-.35.46-.67.29-.07.25-.08.08-.43-.02-.14.07-.04.2.17.18.02.16-.05.3-.11.12-.05.27-.11.14-.47.23-.09.26-.45.28-.07.4-.22.38-.07.04h-.51l-.36.2-.2.26-.23.17-.23-.02h0l-.46-.67-.11-.96.04-1.36.29-.88.38-.79,2.56-4.56.26-1.82.14-3.51.27-1.51-.05-1.52-.31-.6-.56-.27-.48-.1.09-.33-.08-.09.34-1.17.43-1.17,1.25-1.83.41-.41,3.64-4.71.86-.91h0l.07.09.28-1.25.26-.8.29-.58.26-.36.4-.36,1.74-1.11.6-.54.12-1.26-.87-2.12,6.75-4.29.76-.33.49.51-.12,1.27,1.06.78,1.13.95,4.07-2.27.67-.68.95-.19.75-.02.59.13.47.27.38.39.33.49,1.07,1.97.51.76-.46,1.78-.12,1.44.18,2.37,5.68.56,1.63,1.15.29,1.64.4.9,1.57.91.56,1.15-.02.82h.08s1.64-2.41,1.64-2.41l1.07.2,2.32,1.46.1-1.13.65-.38.41-.88.8.11.31.42,1.11-.2.18-1.37.34-.96.48-.06.57-.54.64-.13.42-.96.57-.7.57-.38.42-.79,1.76-.4.31.67.4.02,1.22-.67.65-.62,1.28.47.39.51.57-.38.25-.48.74-.7.97-.2.41-.31.84-1.67,1.47-.83.49-.71.97-.04,1.2.47.66-.62,1.28.71.91-1.02.9-.7.42-1.05,1.4-.92.74-.38.18-.98,1.38.3.88,1.01,1.55.06-1.89-4.08-.62-1.98-.67-4.1,1.09-2.57-.15-1.63.18-2.11,1.8-.85,1.97-.53.27-3.02.25-.16.06-.15h0l.21.17.51.13.49-.12.18-.45.07-1.47.36-.85.61-1.05.9-2.78.59-.84.85-.75.29-.13,1.18.2.41-.02,1.44-.68.66-.24,1.31-.27.33-.24.18-.3.16-.51.17-.22.3-.21.62.07.52-.12.51.19.32.23.29.71.47.29.7.02.69-.37.4-.56.45-.85.4-.23,1.32.35.92-.2.51.04,3.34,1.75.07.45.22.17.32-.13,1.21-.71.31-.08.55.25,1.34.09.58-.14,1.07-.49.68-.13.37.18.54.48.51.14.96-.34.63-.14.86.25.56.09.55-.09.62-.37,1.59-.61.71.18,1.3.64,1.38.18.58-.11.44-.02.49.07.22-.19.36-1.34.49-1.13.27-.08.89.97.76.13,1.19.04,1.11-.31.64-.31.39-.67.56-1.59.24-.4.28-.24.54.12.6.28.42-.12.52-.32.91-.74,1.25-.16.72.06,1.45.58Z"/>
    <path id="TJ-KT" class="st1" d="M493.38,424.81l-.07.4.09.24-.15.35.1.48-.15.34.02.56-.47.38,2.33,1.68,1.14.45,1.54.25,1.93.03,2.33-.24.28,1.27.51.85.97.02,1.35-.63.04-1.29.29-1.15.38-.99-.02-.73.15-.66.41.22.48-.19.16-.41-.09-4.42-.25-.32-.48.27-.49.11-.82-.2-1.05.31-.49-.22v-.5s.38-.68.38-.68l.31-1.09,1.81-4.92,1.42-2.56v-.51s-.73-1.65-.73-1.65l.49-.27,1.38-2.14,1.55-.06.71-.46,1.31-1.19.57-.43.89-.27.24-1.09h.25s.16-.09.16-.09l.58.99,1.79.38,1.62-1.11,1.22-.52.89-.59.81-.68.98-.18.9.65.49-.25.73-.59.08-.25.4.08.57.4,1.06-.18,1.14.57.57.08.16-.91h.4s.49.49.49.49l.32-.42.88-2.82.56-.83,2.44.56.33-.09,2.12-.18,1.23.4,1.23,1.07,2.69-.67.81-.91,1.23.49.74-.17.74-.09.41-.16,1.22-.83.49.33.09,2.81.17.99.32-.58.98-.99.47-.97.71-1.17.38-.51.49-.33,1.09-1.04,1.13-.54.58-1.33,1.16-1.92.58.08,1.16-1.25.95.57,1.11.45.66-.1.71-.84,1.38-3.09,1.92-2.35,1.26-2.02.58-.17.99.68,2.67-.91.73,1.94,1.24.35.57.93.41.42,1.07.27.41.68.57.68.49.85-.27,2.35-.1,1.51.83-.07.75-.49.51-.83.67-.07.51-.83.67-.24,2.75-1.38,1.57.28,1.2.97,1.7,1.2.86.86,1.04,1.35h0l-.86.91-3.64,4.71-.41.41-1.25,1.83-.43,1.17-.34,1.17.08.09-.09.33.48.1.56.27.31.6.05,1.52-.27,1.51-.14,3.51-.26,1.82-2.56,4.56-.38.79-.29.88-.04,1.36.11.96.46.67h0l-.13.45v.31s-.08.15-.08.15l-.1.02-.29-.21-.25.02-.07-.04-.05-.17-.16-.12-.12.04-.05.41.26.47.05.54.35.33-.02.1-.27.25-.18.07-.15-.03-.3-.33h-.47s-.33.25-.33.25l-.46.16-.45.27.07.38-.02.14h-.05s-.5-.41-.5-.41l-.12-.36-.31-.54-.19-.1-.14.11-.14.57-.3.2-.02.09.28.8v.27s.08.39.08.39l-.11.27.24.52-.02.1-.4.37.24.4.02.36.15.16.18.72.1.14.19.08.46.07.49.34.17.22.29.04.86-.08.29.06.31.27.25.44.22.14.23-.02.07.07v.24s-.25.69-.25.69l.1.22-.09.23.15.24.07.27.32.18.11.18.24.16.02.14-.32.6-.07.34.21.29.31.6-.11.45-.39.29v.11s.13.46.13.46l.09.12h.16s.19.07.19.07l.07.09.09.24v.23s-.79.35-.79.35l-.06.1.02.12.09.06.03.11-.29.12-.18,1.14-.16.17-.3.1-.09.17-.04.46.12.1v.43s.14.4.14.4l-.04.38-.13.23-.29-.07-.05.09h-.11s-.09-.09-.09-.09l-.05-.23-.14.02-.1.08-.42.03-.42.18-.37.05-.02.54.28.36.04.29-.18.07-.51-.1-.09.07.02.16.29.21.13.29-.08.21-.38-.08-.25.25-.17.04-.44-.45-.09-.02-.09.07-.02.13.17.29.04.44-.03.1-.31.32v.67s-.1.24-.1.24l-.22.05-.13-.04-.21-.38-.09-.05-.09.11h-.09s-.23.51-.23.51l-.17.1-.53-.06-.14-.09-.41.16h-.12s-.5-.41-.5-.41l-.34-.11-.31.04-.13-.04-.3-.38-.39-.06-.33-.3h-.1s-.27.27-.27.27h-.08s-.13-.29-.13-.29l-.2-.14h-.29s-.3.18-.3.18l-.22-.03-.2-.27-.56-.26-.24-.68-.07-.05-1.23.18-.45-.08-.2-.2.02-.25-.07-.36.04-.44-.16-.22-.2-.64-.09-.08-.3.06-.64-.25-.51-.11-1.81.09-.4.13-.35.2-.37.32-.16.23-.62,1.18-.26.12-.31-.02-.22-.09-.52-.38-.49-.25-.86-.05-.41-.12-.49.09-.71.49-.36.1h-.42s-.54-.1-.54-.1l-.49.1-.42-.09-.52.08-.28-.07h-.65s-.41.15-.41.15l-.35.03-.16-.07-.74-.04-.17-.09-.56-.09-.35-.17-.5-.11-.27-.31-.13-.08-.18.02-.18.15-.27.4-.11.42-.38.71.03.45-.04.13-.38.27-.23.35-.17.76h-.54s-.24.05-.24.05l-.53.48-.15.25-.12-.03-.11.08.09.36-.15.22-.04.29-.18.05-.32-.13-.26.1-.27.81-.29.38-.21.5-.2.12-.61.15-.18.25-.11.37-.42.3.09.27v.27l-.33.85.1.28.3.25.03.12-.36.52.11.38.15.21.08.6.07.05.34-.02.1.1.07.22-.02.13-.36.22-.14,1.14.13.4.29.26.35-.17.17.02v.27s-.24.34-.24.34l.02.13.08.14.45.31.15.22v.14s-.35.35-.35.35l.03.23.33.42.16.51v.18s-.23.55-.23.55l-.03.18.06.2.19.11.29.02.81-.2.18.09.07.13-.06.22-.39.58-.64.8-.13.48-.79,1.37-.12.13-.92-.09-.4.18-.42.45-.54.4-.45.47-.27.72-.13.25-.14.1-.37.12-.95.09-.58.53-.48.04-.2.09-.11.3-.28.07-.27-.09-.18-.16-.21-.36-.51-.39-.18-.49-.37-.4-1.2-.71-.38-.09-1.49-1.02-.49-.4-.31-.13-.58-.92-.47-1.25-.22-.42-.49-.43-1.3-.76-.5-.42-1.59-2.18-.69-.47-.11-.15-.13-.38-.72-.37-.46-.12-.09.02-.3.33-.24-.04-.22-.12-.45-.47-.26-.12-.37.18-.12.28.23,1.11.18.4.27.24.47.16.22.34v.14s-.06.17-.06.17l-.61.48-.35.07-.31-.16-.15-.14-.22-.51-.76-1.12-1.08-.67-.34-.08-.54.29-.31.31-.26.78.25.86.26.3.44.2.19.41-.11.45-.38.27-.27.07-.24-.04-.24-.18-.17-.23-.11-.16-.1-.36-.14-.98-.07-.18-.21-.16-.36-.06-1.05.42-.76.62-.52-.06-1.51-.54-.22.05-.25.22-.07.29.11.38.3.42.16.5-.06.15-.2.17-.2.03-.57-.58-.11-.02-.2.14-.16.24.13.36-.11.84-.28.54-.45.13h-.27s-.63.48-.63.48l-1.92.4-.11.07-.57.83-.47.36-.6.09-.69-.23-.55.08-.29.31-.25.4-.28.27-.25.02-.84-.48-.13-.02-.23.09-.2.22-.38.74-.03.45-.09.12-.57.34-.32.65-.39.39-.9-.07-.66-.36-.34-.11h-.99s-.69.22-.69.22l-.31.33-.31.68-.21.93.05.37-.07,1.38-.21.73-.18.26-.22.19-.24.13-.42.07-.19-.04-.5-.22-.97-.61-.19-.08-.27.03-.3.14-1.32.91-.26.28-.45.29-.33.45-.56.11-.46.36-.57.6-.43.69-.44.14-.29.25-.27.14-.87.19-.28.19-.54.18-1.08-.51-.33-.75-.05-.55-.42-.72-.38-.2-.9-.23-.71-.29-.85-.66-.24-.4-.14-1.87-.22-.46-.35-.32-.31-.08-1.01.06-.66-.04-.67-.15-.71-.3-.54-.31-.56-.55-.04-.17.04-.56.27-.99.03-1.69.18-.74-.08-.37-.19-.41.62-.4.64-2.19.24-1.9.27-4.11-.23-3.62.04-2.31,1.07-3.5,1.03-.89.41-.5,1.15-2.19.95-2.2,2.07-2.68,1.23-.89,1.04-1.49,2.85-6.1.74-1.3,3.66-.63,1.12-.48,1.13-.58.32-.8-.09-.71.37-.86Z"/>
    <path id="TJ-RR" class="st1" d="M630.07,339.11l.05.91-.14.67-.43.67-.17.79v.7s.38,1.76.38,1.76l.41.95.6.32,1.51.22.56.26h.59s.87-.3.87-.3l.56-.28,1.34-.29.98.09.78-.13.49.03,1.07.71.47.8.25,1.38-.15,1.18-.17.3-.96.46-.67.87-.18,1.43.34.72.8,1.31.44.44.48.23.67-.06.74-.37.42-.08,1.38.11.86.31.47-.1.32-.16.53-1.13.55-.89.56-.71.55-.17,1-.71.71-.16.98-.85.31.1.32.25.33.43.29,1.59.51.94.32,1.05.47.75.42.36h.47s.45-.07.45-.07l1.31.08.36.15.55,1.04.36.36.77.54.25.48.09.65-.03.54.17.58.33.27h0l-.06.15-.25.16-.27,3.02-1.97.53-1.8.85-.18,2.11.15,1.63-1.09,2.57.67,4.1.62,1.98,1.89,4.08-1.55-.06-.88-1.01-1.38-.3-.18.98-.74.38-1.4.92-.42,1.05-.9.7-.91,1.02-1.28-.71-.66.62-1.2-.47-.97.04-.49.71-1.47.83-.84,1.67-.41.31-.97.2-.74.7-.25.48-.57.38-.39-.51-1.28-.47-.65.62-1.22.67-.4-.02-.31-.67-1.76.4-.42.79-.57.38-.57.7-.42.96-.64.13-.57.54-.48.06-.34.96-.18,1.37-1.11.2-.31-.42-.8-.11-.41.88-.65.38-.1,1.13-2.32-1.46-1.07-.2-1.64,2.41h-.08s.02-.81.02-.81l-.56-1.15-1.57-.91-.4-.9-.29-1.64-1.63-1.15-5.68-.56-.18-2.37.12-1.44.46-1.78-.51-.76-1.07-1.97-.33-.49-.38-.39-.47-.27-.59-.13-.75.02-.95.19-.67.68-4.07,2.27-1.13-.95-1.06-.78.12-1.27-.49-.51-.76.33-6.75,4.29.87,2.12-.12,1.26-.6.54-1.74,1.11-.4.36-.26.36-.29.58-.26.8-.28,1.25-.07-.09h0l-1.04-1.35-.86-.86-1.7-1.2-1.2-.97-1.57-.28-2.75,1.38-.67.24-.51.83-.67.07-.51.83-.75.49-.83.07.1-1.51.27-2.35-.49-.85-.57-.68-.41-.68-1.07-.27-.41-.42-.57-.93-1.24-.35-.73-1.94-2.67.91-.99-.68-.58.17-1.26,2.02-1.92,2.35-1.38,3.09-.71.84-.66.1-1.11-.45-.95-.57-1.16,1.25-.58-.08-1.16,1.92-.58,1.33-1.13.54-1.09,1.04-.49.33-.38.51-.71,1.17-.47.97-.98.99-.32.58-.17-.99-.09-2.81-.49-.33-1.22.83-.41.16-.74.09-.74.17-1.23-.49-.81.91-2.69.67-1.23-1.07-1.23-.4-2.12.18-.33.09-2.44-.56-.56.83-.88,2.82-.32.42-.49-.49h-.4s-.16.91-.16.91l-.57-.08-1.14-.57-1.06.18-.57-.4-.4-.08-.08.25-.73.59-.49.25-.9-.65-.98.18-.81.68-.89.59-1.22.52-1.62,1.11-1.79-.38-.58-.99-.16.09h-.25s-.24,1.09-.24,1.09l-.89.27-.57.43-1.31,1.19-.71.46-1.55.06-1.38,2.14-.49.27.74,1.65v.51s-1.43,2.56-1.43,2.56l-1.81,4.92-.31,1.09-.39.68v.5s.5.22.5.22l1.05-.31.82.2.49-.11.48-.27.25.32.09,4.42-.16.41-.48.19-.41-.22-.15.66.02.73-.38.99-.29,1.15-.04,1.29-1.35.63-.97-.02-.51-.85-.28-1.27-2.33.24-1.93-.03-1.54-.25-1.14-.45-2.33-1.68.47-.38-.02-.56.15-.34-.1-.48.15-.35-.09-.24.07-.4h0l.06-.14-.07-1.42,1.48-2.8,1.04-1.19.73-.59.31-.4.13-1.11,1.22-4.33.02-.71-.98-1.34-.66-1.2-.02-.34-1.78-2.28-.9-.63-1.31-.64-1.21-.44-.2-.2-.09-.51.02-.71-.19-.71-1.27-2.16-1.51-.85h-.41s-1.34.57-1.34.57h-.41s.22-.92.22-.92l.52-.7.32-.6.33-1.01-.9-.74-2.18-2.9.18-3.67.12-.61v-.51s.43-.5.43-.5v-.41s-.78-1.75-.78-1.75l-.38-1.34.42-.5.73-.6,1.03-.08.41-.09.32-.6-1.99-2.81-.29-.51.32-.5,2.26-.37.93-.29.53-.81.62-.4.51-.19-.1-.82h0l.38-.04.16-.64,1.07-.23.66-1.35,2.24-2.07.57-.04.76-.68.58-.33.32-.02.54.16,2.54,1.43,1.53-.55,1.83.08.73-.56.73-.73.8-.16,1.84-.58.73-.49.49-.89.11-1.61.49-.65,1.43-.18,1.99-.43,1.04-.58,1.19-.18,1.19.13.71-.1.56-.33,1.36-.51.94.76,1.03-.03,1.12-.51,1.12-.03.64.4,1.85,1.67,1.21.67.24.08.48-.25,2.1-.09,1.21.51.49.76,1.3,1.44.81.17h1.3l1.54-.85,1.7-1.1,1.3-.94.73-.94.82-.51,1.07.17,1.16.59,2.73,1.18.58.08.49-.6-.17-.93-.5-.76v-.68s.24-.85.24-.85l1.07-.35,2.47-1.13.35-.02.31.16.3.37.34.62,1.09,2.43.59,2.03.42.25,1-.35.58-.86.5-.43,1.42,1.26.67.25.33-.6-.17-.76,1.26-1.2h.09l-.33-.59.17-.94v-1.62s-.25-1.28-.25-1.28l.59-1.28.42-.69-2.29-3.64,1.78-1.47,1.02-.69.09-1.87,1.37-.27,1.19,1.1.94-.43.86-.85,1.2-.58.5,1.02.24.94,1.11-.15,1.06-1.73.69-.56.95-.13,1.01.95.51.35,1.19.62,1.49-.71,1.47-.04,1.09-1.16,1.72-1.34,1.23-.06,1.45.72,1.31-.13,1.11.29,1.07-1.05,1.95.68.57-1.96,1.53.09,1.72-.31.76-1.76,1.53-.06.67-1.25,1.66-1.22h0l1.36.82.36.51.3.82.05.49v1.45s.14.42.14.42l.08,1.04.22.27.63.27,1.13.05.94-.08.94-.19.31.02.5.23.5.38.86-.09.4-.37.54-.9.03-1.06.22-.38.42-.06.35.22.63.83.8.63.62.03.96-.08.84-.27.61-.28.27-.3.34-.68-.13-2.05.13-.57.36-.98.41-.39.56-.2.62-.02,1.75.17,1-.2.51-.28,1.43-1.04.18-.51.38-.37.22.17.8,1.39.38.28h.36s.51-.29.51-.29l.89-1.09.23-.45.05-.9.8-.37.26-.04,1.31.22.93.05.87-.34,1.03-.74.78-.89.38-.26.47-.05,1.14.61,1.04.81.38.69Z"/>
    <path id="TJ-SU1" data-name="TJ-SU" class="st1" d="M593.92,326.45l1.28.22.92-.3.75-.04.43.28.36,1.2-1.47,1.02-1.52-.14-.13,1.28-.38,1.01-.73.42-.96-.86-.68-1.79-2.14-1.25-1.21-.49.03-.98.39-.58h.17s1.93.44,1.93.44l1.75.29,1.21.27h0ZM595.37,269.86l-.18.31-1.57-2.06-1.27-1.79-1.09-.8-.91-.02-.17-.61.24-.42.65-.5-.24.34,1.08.46,1.35,1.58,1.55,2.11.57,1.42h0ZM586.56,262.66l.13.04.28-.06.65.36.08.34.16.26.57.53.41.27.06.55.29.21.79,1.07.27-.04.34.06.08.31.41.91.53.59.37.53.35.8.99,1.47.2.52.09.06v.14s.12.33.12.33h.24s.11.33.11.33l.52.36.34.38.5,1.23.74.28.47.42.27.47.38.41-.43.34-.15-.08-.26.16.07.29-.17.26-.33.09-.51-.22-.43-1.08-.33,1.11.03.64.28.57.74-.21h.63s.23.09.23.09h.24l.77.4-.25.16.8.04.38.2.66.51.24.25.21.39-.06.29-.52.47-.27.9-.39.52-.59.04-.26-.23-.28.21.16.88-.04.6-.29-.03-.36-.25-.87.19-.37.44-.37.07-.13.26-.46.15-.6.66-.58.16-.32.34-1,1.99-.78.99-.38.15-.64.02-.43.32-.69-.06-.53.07-.36.19-.17.36-.12.8-.4.4-.11.72-.42.37h-.72s-.45.21-.45.21l-1.38.43-.98.51-1.07.2-.89.72-.73.19-.11.18.05.54.5,1.07.32.51.13.66.25.09.26.28.4.99.3.33.4.19.38.03.81-.38h.28s.64.19.64.19l.25.16,1.46.3,2.6,1.17.66.6.21.49-.13.79.33.82.17.74-.34.88-.06,1.14-.12.11.48.84.64.35.29.79.31.4.36.86.39.66.37.23.37.08,1.34-.32,1.31-.19.15-.11,1.25-.11,1.11-.29h.31s2.21-.98,2.21-.98l1.52-1.13.24.07.99-.23.76-.08,2.13-.06.5.34.17.35.03.3-.12.55v.7s-.14.12-.14.12l-.28,1.09-.35.35-.29.06-.06.1-1,.26-.43.29-.39.03-2.05-1.05-.77-.15-.39.06-.34.3-.38,1.72-.27.48-.73.57-.56.57-.75.42-1.6.19-1.59-.09-.62.27-.31.36-.2.55.02.32h.23l-.02.28.07.21.03.71-.12.42.21.64-.19.27-.26.71-.4.83v.36s-.24.28-.24.28l-.56.09-2.04,1.48-.33.03-.35.3-.26.1-.18-.3-.98.1v.12s-.33.27-.33.27l-.15.5.19.4.64.71v.25s-.15.09-.15.09l-1.49-1.62-.49.05-.79-.72-.25-.49.44-.6.57-.59,1.33-.55,1.3-1.07.21-.39.64-.72-.03-.21-.43-.02-.02-.27-.27-.08-.16.11-.06-.06.19-.32-.11-.22-.19-.13-.06.02v-.06s-.58-.4-.58-.4l-.74-.14-.19-.11-2.94-.36-.54-.14-.61-.38-.53-.92-1.02-.11-.6-.22-.6-.74-.4-.28-1.09-.53-.81-.19-.45-.18-.93.19h-1.3s-.56-.28-.56-.28l-.24-.36-2.78-1.87-1.63-1.39-1.03-.68-.43.07h-.51s-.6-.27-.6-.27l-.69-.03-.59-.26-.79.23-.76.53-.7.22-.57.36-.91.36-.16.17-1.65.68-.58.17-.79.38-1.12.31-1.25.64-.23.21-.76.28-1.92,1.15-.33.09h-.68s-1.21-.12-1.21-.12l-1.36.4-1.35.28-.81.04-1.51.74-.24.28-.11.4-.17,1.11.08.23-.19.36-.15.65.06.3.93,1.82-.2,1.33.36,1.4-.07.56-.42.3-.74.38-1.12,1.04-.47.24-.67-.02-1.01-.5-.23-.94-.21-1.45-.93-1.37-.46-1.29h-1.19l.11,1.19-.49,2.15-.64,2.09-.85.85-.2,1.33-.03.92-.23.81-.71,1.26-.12.61.54,2.28.48.94.79,1.16.28,1.04-.26,1.48.14.42.3.32.06,1.13.25.26.09.36-.02.51.09.57.66.33-.76,2.69,1.04,1.21h.36s.43-.38.43-.38l.61-1.36.16-.15h.31s.19.58.19.58l.55.38.86.29.68-.28.6.33.15.16.89-.53.67-.13.68-.38.36.06.74-.49.62.02.66-1.15,1.3-.62,1.32.51.67-.03.9-.79.67-.13.77.13.81.29.34.37,1.42.31.75.39,1.79,1.4.18.62.15.21h.21s.38-.44.38-.44l.48-.44.46-.62.19-.94.27-.25.9-.17,1.37.29.67.54.28.73.42.35.61.1.76-.33.4-1.06.36-.11.25.19.17.36-.11,1.38.13.57.24-.27.19-1.43.34-.68,1.22-1,.7-.17.35.19.24,1.01.55.38.69.13h.41s.51-.63.51-.63l.15-.51.11-.71.32-.4h.23s.28,1.28.28,1.28l.34.48.6.33.89,1.22.42.43.46.1.86-.24.53-.41.51-.49,1.42-1.91.46-.44.6-.18h.36s.79.21.79.21l.62.44.81.29.6-.2.3-.42.47-1.29.45-.26.59-.02.79.21.63.29.24.32.26.53.57.44.99.2h1.08l.59.11,1.1.69,1.75,3.13.42.26h0l-1.65,1.21-.66,1.25-1.52.06-.75,1.74-1.7.3-1.52-.09-.57,1.94-1.93-.68-1.06,1.04-1.11-.29-1.3.13-1.44-.72-1.21.06-1.7,1.32-1.08,1.15-1.46.04-1.47.7-1.18-.62-.51-.35-1-.94-.94.13-.69.56-1.04,1.72-1.11.15-.24-.93-.49-1.01-1.19.57-.86.84-.94.43-1.18-1.09-1.36.27-.09,1.86-1.01.69-1.77,1.46,2.26,3.61-.42.68-.59,1.28.25,1.27v1.61l-.17.93.33.59h-.09l-1.25,1.19.17.76-.33.59-.66-.25-1.41-1.25-.5.43-.58.85-.99.35-.41-.25-.59-2.02-1.07-2.41-.34-.62-.3-.37-.3-.15-.34.02-2.45,1.11-1.06.35-.24.84v.67s.5.75.5.75l.17.92-.49.59-.57-.08-2.71-1.17-1.15-.58-1.06-.17-.81.51-.72.92-1.29.93-1.69,1.09-1.53.84h-1.29s-.81-.16-.81-.16l-1.29-1.42-.49-.75-1.2-.5-2.08.09-.48.25-.24-.09-1.2-.67-1.83-1.66-.64-.4-1.11.03-1.11.51-1.02.03-.94-.76-1.35.51-.56.33-.71.1-1.18-.13-1.18.18-1.03.57-1.98.43-1.42.17-.49.64-.11,1.59-.49.88-.72.49-1.83.57-.79.17-.72.72-.72.56-1.81-.08-1.51.55-2.51-1.41-.54-.15-.32.02-.58.32-.75.68-.57.04-2.22,2.05-.66,1.34-1.06.23-.16.64-.38.04h0l-.16-1.13.31-.19.13-1.11-.09-.71-.6-.42-1.6-1.36-.2-.11-.29-.92-.78-1.64-1.11-.74-1.12-.13-1.03.49-.62.39-.91-.22-.5-.42-.5-.62h-.41s-.93.48-.93.48l-.61.09-1.22-.02-.94,1.2h-.51s-.81-.13-.81-.13l-1.21-.73-1.83.17-.93.64-.55-.21-.41.2-.41.09-.61-.26-.7-.98-.12-1.83-.39-1.13.19-2.24.31-.45v-.51s-.24-.26-.24-.26l-1.42-.07-.51-.21-.59-1.49-.91-.42-.97-.17-.92.19h-.71s-.76-.28-.76-.28l-.55-.36-1.57-.33-.86-.47-.66-.67-1.25-2.16-.31-1.14v-.41s.21-.25.21-.25l.98-.29,2-.74.87-.19.36.11,1.07.17.16-.4-.19-.72-.84-1.75-.74-2.06-1.79-3.86-.5-.77.02-1.18.32-.71.41-.1,1.74.49h.26s.36-.45.36-.45l-.18-1.44.11-.61,3.56-1.33,1.28-.03.51-.15.84-1.37.57-.4.98-.34.47-.66.31-.25h.36s1.73.76,1.73.76h.21s.88-.29.88-.29l.62-.35.4.21,1.77,1.26,1.23.07.86.79,1.68.75.82-.09,1.23.08.81.32.98.77.54.13.98-.08.66.17.86.43,2,.15.67-.09.51.21.4.32.66.12.83-.24,1.13-.13,1.58.19,1.28.29.46.21.7.68.36.11,1.66-.73,2.66.43,1.03-.23.96.33.73-.65.28-.91.19-1.38.57-.29.73-.6,2.12-2.4.25-1.53-1.68-2.4-.24-.57.37-.45.57-.04.57-.24.27-.51.23-.82.43-.76.29-1.17-.14-.52-.13-.98.08-1.03.57.02.51.12.46.27.64-.6.68-.49.41.11.7.79.28,1.14.51.37.41-.09.21-.2.11-.36.13-.92.27-.35.83-.18.32-.25.33-.71-.03-.62-.72-1.72-.93-1.78-.08-.98.11-.36.42-.19.36.06.65.79.78,1.67.43,1.2.06,1.6.54.84.56.28.72-.08.64-.65.17-.61-.03-.67-.49-.99-2.34-2.9-1.34-1.25-.03-.27.37-1.21-.05-.57-.3-.38-.54-.46-.31-.51.03-.47.21-.26.52-.18.58.09.66.99.26,1.15.41.23.13-.11.16-.52.03-.4.44-.4.61-.39,1.36-.31.67-.02h.81l1.37.33.67-.05.29-.6-.04-.57-.36-1.55-.36-1.15-.75-.58-2.82.1-1.5.19-3.07.79-1.11.5-2.57.72-1.17.5-1.92.4-1.11.03-2.34-1.38-.77-.71.21-.54,2.59-.75.08-.13.78-.07,1.6-.48,3.88-1.25.87-.4,1.49.49.65.11,1.16-.3.87-.48.34-.33,1.75-.41,3.01-.31,2.3.02,1.28.4h.94s1.06.11,1.06.11l.57-.04.94.33.97-.08.69-.22,1.17.28,1.76.03.5.33.5.22.43-.36-.32-.65-.43-1.25-.36-.38-1.23-.24-.37-.38.21-.76-.31-.51.16-.55.34-.02.42.17.82.07.74-.06,1.01-.96v-.81s.3-.49.3-.49l-.02-1.08-.94-.74-.37-.45v-.74s-.25-.72-.25-.72l-.36-.31.21-.76-.42-.17-.16-.32-.13-.8-.26-.72-.37-.45v-.74s.32-.36.32-.36l.04-.68-.59-.51-1.2-1.65-.06-.3.09-.37.16-.21.72-.55.68-.4,1.62-.21.78.16.27-.07.23-.24-.02-.16.36-.67.43-.21.23-1.13-.51-1.1-.31-1.01.19-3.14.06-.29.3-.34v-.29s.18-.56.18-.56l1.06-1.38.58-.94.29-.11,1.18-.07.6.3,2.26.63.7.04.38.1.49.42.18.25.77,1.53.22,1.07.49.7,1.13.81.33.51.32.28.62.1.36.19.38.82.07.34.27.37.6.13.79-.1h.66s.83-.52.83-.52l.48-.87.78-1.84.4-.36.29-.14.34-.05,1.28.36.27-.03.84-.9.6-.44.4-.15h.38s1.42.87,1.42.87h.19s1.06-.99,1.06-.99l.68-.44,1.81-.26.25-.18.49-.14.95-.81,1.28-.5,2.13-2.07.28-.39.25-.78.17-.28.27-.24.53-.09.32.06.6.31,1.02.16,1.31-.84.79-.34.22-.21.42-.7.26-.09.38-.32.23-.06.6-.41.6-.07.48.05.61-.21.33-.32.46-.9v-.32s-.26-.83-.26-.83l.14-.64.24-.18.37-.56.02-.68.27-.47-.25-1.15v-.25s.1-.17.1-.17l.34-.25.19-.28.16-.56.17-.27.32-.27.83-.41.37-.09.92.23h0Z"/>
  </g>
</svg>